<?xml version="1.0" encoding="UTF-8" standalone="no"?>
<svg
   xmlns:dc="http://purl.org/dc/elements/1.1/"
   xmlns:cc="http://creativecommons.org/ns#"
   xmlns:rdf="http://www.w3.org/1999/02/22-rdf-syntax-ns#"
   xmlns:svg="http://www.w3.org/2000/svg"
   xmlns="http://www.w3.org/2000/svg"
   xmlns:sodipodi="http://sodipodi.sourceforge.net/DTD/sodipodi-0.dtd"
   xmlns:inkscape="http://www.inkscape.org/namespaces/inkscape"
   width="1000mm"
   height="1000mm"
   viewBox="0 0 2834.6457 2834.6456"
   version="1.1"
   id="svg3355"
   inkscape:version="0.91 r13725"
   sodipodi:docname="Getrennt_Norm_Bearb_Kreuzung.svg">
  <metadata
     id="metadata3703">
    <rdf:RDF>
      <cc:Work
         rdf:about="">
        <dc:format>image/svg+xml</dc:format>
        <dc:type
           rdf:resource="http://purl.org/dc/dcmitype/StillImage" />
        <dc:title />
      </cc:Work>
    </rdf:RDF>
  </metadata>
  <sodipodi:namedview
     pagecolor="#ffffff"
     bordercolor="#666666"
     borderopacity="1"
     objecttolerance="10"
     gridtolerance="10"
     guidetolerance="10"
     inkscape:pageopacity="0"
     inkscape:pageshadow="2"
     inkscape:window-width="1280"
     inkscape:window-height="695"
     id="namedview3701"
     showgrid="false"
     inkscape:document-units="mm"
     units="mm"
     fit-margin-top="0"
     fit-margin-left="0"
     fit-margin-right="0"
     fit-margin-bottom="0"
     inkscape:zoom="0.11598928"
     inkscape:cx="2230.1546"
     inkscape:cy="2089.1992"
     inkscape:window-x="0"
     inkscape:window-y="0"
     inkscape:window-maximized="1"
     inkscape:current-layer="surface4462" />
  <defs
     id="defs3357">
    <clipPath
       id="clip1">
      <path
         d="m 715,578 17,0 0,2 -17,0 z m 0,0"
         id="path3360"
         inkscape:connector-curvature="0" />
    </clipPath>
    <clipPath
       id="clip2">
      <path
         d="m 720,550 12,0 0,2 -12,0 z m 0,0"
         id="path3363"
         inkscape:connector-curvature="0" />
    </clipPath>
    <clipPath
       id="clip3">
      <path
         d="m 720,583 12,0 0,2 -12,0 z m 0,0"
         id="path3366"
         inkscape:connector-curvature="0" />
    </clipPath>
    <clipPath
       id="clip4">
      <path
         d="m 720,10 12,0 0,2 -12,0 z m 0,0"
         id="path3369"
         inkscape:connector-curvature="0" />
    </clipPath>
    <clipPath
       id="clip5">
      <path
         d="m 724,559 8,0 0,12 -8,0 z m 0,0"
         id="path3372"
         inkscape:connector-curvature="0" />
    </clipPath>
  </defs>
  <g
     id="surface4462"
     transform="translate(984.56739,1093.2345)">
    <path
       style="fill:none;stroke:#000000;stroke-width:2.83464575;stroke-linecap:butt;stroke-linejoin:miter;stroke-miterlimit:2;stroke-dasharray:none;stroke-opacity:1"
       d="m 1842.9917,-1093.2355 0,2834.6466"
       id="path3539"
       inkscape:connector-curvature="0" />
    <path
       style="fill:none;stroke:#000000;stroke-width:2.83464575;stroke-linecap:butt;stroke-linejoin:miter;stroke-miterlimit:2;stroke-dasharray:none;stroke-opacity:1"
       d="m 1850.0792,1734.3245 -2834.64659,0"
       id="path3541"
       inkscape:connector-curvature="0" />
    <path
       style="fill:none;stroke:#000000;stroke-width:2.83464575;stroke-linecap:butt;stroke-linejoin:miter;stroke-miterlimit:2;stroke-dasharray:none;stroke-opacity:1"
       d="m -977.48078,1741.4111 0,-2834.6466"
       id="path3543"
       inkscape:connector-curvature="0" />
    <path
       style="fill:none;stroke:#000000;stroke-width:2.83464575;stroke-linecap:butt;stroke-linejoin:miter;stroke-miterlimit:2;stroke-dasharray:none;stroke-opacity:1"
       d="m -984.56739,-1086.148 2834.64659,0"
       id="path3545"
       inkscape:connector-curvature="0" />
    <path
       id="path3521-4"
       style="fill:none;stroke:#0000ff;stroke-width:5.6692915;stroke-linecap:butt;stroke-linejoin:miter;stroke-miterlimit:2;stroke-dasharray:none;stroke-opacity:1"
       d="m -977.46457,-1036.3001 30.09201,-4e-4 3.48691,-0.294 3.3886,-0.9604 3.19262,-1.4898 2.8402,-2.0974 2.44842,-2.4894 1.97833,-2.9404 1.41028,-3.2343 0.84224,-3.3911 0.19589,-2.901 6e-5,-30.0444 84.75391,0.1609 0,49.6814 -0.0588,2.4897 -0.19579,3.5479 -0.29383,3.4892 -0.50925,3.4891 -0.58768,3.4891 -0.76382,3.4304 -0.88141,3.4499 -1.05776,3.3322 -1.19486,3.3519 -1.29271,3.2932 -1.48861,3.17545 -1.60617,3.1952 -1.68449,3.09707 -1.84121,2.97953 -1.99787,2.95986 -2.09588,2.84222 -2.19375,2.72465 -2.29169,2.705 -2.42878,2.52863 -2.54637,2.45024 -2.64431,2.39151 -2.74215,2.25421 -2.78142,2.07781 -2.89898,1.99934 -2.9772,1.90132 -3.09477,1.78377 -3.13393,1.60746 -3.19282,1.48972 -3.23188,1.3525 -3.34935,1.23484 -3.32982,1.09774 -3.38861,0.96054 -3.44739,0.78404 -3.48645,0.64694 -3.48655,0.50953 -3.52572,0.39196 -3.48655,0.19624 -3.54553,0.0977 -49.39234,4.4e-4 z"
       inkscape:connector-curvature="0"
       sodipodi:nodetypes="cccccccccccccccccccccccccccccccccccccccccccccccccccccc" />
    <path
       id="path3521-4-7"
       style="fill:none;stroke:#0000ff;stroke-width:5.6692915;stroke-linecap:butt;stroke-linejoin:miter;stroke-miterlimit:2;stroke-dasharray:none;stroke-opacity:1"
       d="m -927.63284,1734.3083 -4e-4,-30.092 -0.294,-3.4869 -0.9604,-3.3886 -1.4898,-3.1926 -2.0974,-2.8402 -2.48939,-2.4484 -2.9404,-1.9784 -3.2343,-1.4102 -3.39109,-0.8423 -2.901,-0.1959 -30.04437,0 0.1609,-84.7539 49.68135,0 2.48969,0.059 3.5479,0.1957 3.4892,0.2939 3.48909,0.5092 3.4891,0.5877 3.4304,0.7638 3.44989,0.8814 3.3322,1.0578 3.3519,1.1949 3.29319,1.2927 3.1755,1.4886 3.1952,1.6061 3.09705,1.6845 2.97953,1.8412 2.95985,1.9979 2.84222,2.0959 2.72464,2.1937 2.705,2.2917 2.52863,2.4288 2.45024,2.5464 2.39151,2.6443 2.25421,2.7421 2.07779,2.7815 1.99935,2.8989 1.90132,2.9772 1.78377,3.0948 1.60745,3.1339 1.48972,3.1929 1.3525,3.2318 1.23484,3.3494 1.09773,3.3298 0.96055,3.3886 0.78404,3.4474 0.64693,3.4865 0.50954,3.4865 0.39196,3.5257 0.19624,3.4866 0.0977,3.5455 4.4e-4,49.3924 z"
       inkscape:connector-curvature="0"
       sodipodi:nodetypes="cccccccccccccccccccccccccccccccccccccccccccccccccccccc" />
    <path
       id="path3521-4-9"
       style="fill:none;stroke:#0000ff;stroke-width:5.6692915;stroke-linecap:butt;stroke-linejoin:miter;stroke-miterlimit:2;stroke-dasharray:none;stroke-opacity:1"
       d="m 1793.1438,-1086.1318 4e-4,30.092 0.294,3.4869 0.9604,3.3886 1.4898,3.1927 2.0974,2.8402 2.4894,2.4484 2.9404,1.9783 3.2343,1.4103 3.3911,0.8422 2.901,0.1959 30.0444,10e-5 -0.1609,84.75389 -49.6814,0 -2.4897,-0.0588 -3.5479,-0.19578 -3.4892,-0.29383 -3.4891,-0.50925 -3.4891,-0.58768 -3.4304,-0.76382 -3.4499,-0.88141 -3.3322,-1.05776 -3.3519,-1.19487 -3.2932,-1.2927 -3.1755,-1.48862 -3.1952,-1.60616 -3.097,-1.68449 -2.9796,-1.84121 -2.9598,-1.99787 -2.8422,-2.09588 -2.7247,-2.19375 -2.705,-2.29169 -2.5286,-2.42879 -2.4503,-2.54636 -2.3915,-2.64432 -2.2542,-2.74214 -2.0778,-2.78142 -1.9993,-2.89898 -1.9014,-2.9772 -1.7837,-3.09478 -1.6075,-3.13392 -1.4897,-3.19281 -1.3525,-3.2319 -1.2348,-3.3493 -1.0978,-3.3299 -0.9605,-3.3886 -0.7841,-3.4474 -0.6469,-3.4864 -0.5095,-3.4866 -0.392,-3.5257 -0.1962,-3.4865 -0.098,-3.5456 -5e-4,-49.3923 z"
       inkscape:connector-curvature="0"
       sodipodi:nodetypes="cccccccccccccccccccccccccccccccccccccccccccccccccccccc" />
    <path
       id="path3521-4-2"
       style="fill:none;stroke:#0000ff;stroke-width:5.6692915;stroke-linecap:butt;stroke-linejoin:miter;stroke-miterlimit:2;stroke-dasharray:none;stroke-opacity:1"
       d="m 1842.9755,1684.4765 -30.092,4e-4 -3.487,0.294 -3.3886,0.9604 -3.1926,1.4898 -2.8402,2.0974 -2.4484,2.4894 -1.9783,2.9404 -1.4103,3.2343 -0.8422,3.3911 -0.1959,2.901 -10e-5,30.0444 -84.7539,-0.1609 0,-49.6814 0.059,-2.4897 0.1958,-3.5479 0.2938,-3.4892 0.5093,-3.4891 0.5876,-3.4891 0.7639,-3.4304 0.8814,-3.4499 1.0577,-3.3322 1.1949,-3.3519 1.2927,-3.2932 1.4886,-3.1755 1.6062,-3.1952 1.6845,-3.0971 1.8412,-2.9795 1.9978,-2.9598 2.0959,-2.8423 2.1938,-2.7246 2.2917,-2.705 2.4288,-2.5287 2.5463,-2.4502 2.6443,-2.3915 2.7422,-2.2542 2.7814,-2.0778 2.899,-1.9994 2.9772,-1.9013 3.0948,-1.7838 3.1339,-1.6074 3.1928,-1.4897 3.2319,-1.3525 3.3493,-1.2349 3.3299,-1.0977 3.3886,-0.9606 3.4474,-0.784 3.4864,-0.6469 3.4866,-0.5096 3.5257,-0.3919 3.4865,-0.1963 3.5456,-0.098 49.3923,-4e-4 z"
       inkscape:connector-curvature="0"
       sodipodi:nodetypes="cccccccccccccccccccccccccccccccccccccccccccccccccccccc" />
  </g>
</svg>
