<?xml version="1.0" encoding="UTF-8" standalone="no"?>
<svg
   xmlns:dc="http://purl.org/dc/elements/1.1/"
   xmlns:cc="http://creativecommons.org/ns#"
   xmlns:rdf="http://www.w3.org/1999/02/22-rdf-syntax-ns#"
   xmlns:svg="http://www.w3.org/2000/svg"
   xmlns="http://www.w3.org/2000/svg"
   xmlns:sodipodi="http://sodipodi.sourceforge.net/DTD/sodipodi-0.dtd"
   xmlns:inkscape="http://www.inkscape.org/namespaces/inkscape"
   width="2000mm"
   height="2000mm"
   viewBox="0 0 5669.2914 5669.2912"
   version="1.1"
   id="svg4143"
   inkscape:version="0.91 r13725"
   sodipodi:docname="Getrennt_Norm_Bearb_Kurve.svg">
  <metadata
     id="metadata4663">
    <rdf:RDF>
      <cc:Work
         rdf:about="">
        <dc:format>image/svg+xml</dc:format>
        <dc:type
           rdf:resource="http://purl.org/dc/dcmitype/StillImage" />
        <dc:title />
      </cc:Work>
    </rdf:RDF>
  </metadata>
  <sodipodi:namedview
     pagecolor="#ffffff"
     bordercolor="#666666"
     borderopacity="1"
     objecttolerance="10"
     gridtolerance="10"
     guidetolerance="10"
     inkscape:pageopacity="0"
     inkscape:pageshadow="2"
     inkscape:window-width="1280"
     inkscape:window-height="695"
     id="namedview4661"
     showgrid="false"
     units="mm"
     fit-margin-top="0"
     fit-margin-left="0"
     fit-margin-right="0"
     fit-margin-bottom="0"
     inkscape:document-units="mm"
     inkscape:zoom="0.04"
     inkscape:cx="2391.2442"
     inkscape:cy="4558.7732"
     inkscape:window-x="0"
     inkscape:window-y="0"
     inkscape:window-maximized="1"
     inkscape:current-layer="surface851108" />
  <defs
     id="defs4145">
    <clipPath
       id="clip1">
      <path
         d="m 569,701 2,0 0,23 -2,0 z m 0,0"
         id="path4148"
         inkscape:connector-curvature="0" />
    </clipPath>
    <clipPath
       id="clip2">
      <path
         d="m 578,701 1,0 0,23 -1,0 z m 0,0"
         id="path4151"
         inkscape:connector-curvature="0" />
    </clipPath>
    <clipPath
       id="clip3">
      <path
         d="m 307,701 1,0 0,23 -1,0 z m 0,0"
         id="path4154"
         inkscape:connector-curvature="0" />
    </clipPath>
    <clipPath
       id="clip4">
      <path
         d="m 315,701 2,0 0,23 -2,0 z m 0,0"
         id="path4157"
         inkscape:connector-curvature="0" />
    </clipPath>
    <clipPath
       id="clip5">
      <path
         d="m 19,699 2,0 0,25 -2,0 z m 0,0"
         id="path4160"
         inkscape:connector-curvature="0" />
    </clipPath>
    <clipPath
       id="clip6">
      <path
         d="m 21,698 1,0 0,26 -1,0 z m 0,0"
         id="path4163"
         inkscape:connector-curvature="0" />
    </clipPath>
    <clipPath
       id="clip7">
      <path
         d="m 19,118 2,0 0,18 -2,0 z m 0,0"
         id="path4166"
         inkscape:connector-curvature="0" />
    </clipPath>
    <clipPath
       id="clip8">
      <path
         d="m 302,118 1,0 0,18 -1,0 z m 0,0"
         id="path4169"
         inkscape:connector-curvature="0" />
    </clipPath>
    <clipPath
       id="clip9">
      <path
         d="m 302,118 1,0 0,18 -1,0 z m 0,0"
         id="path4172"
         inkscape:connector-curvature="0" />
    </clipPath>
    <clipPath
       id="clip10">
      <path
         d="m 584,118 2,0 0,18 -2,0 z m 0,0"
         id="path4175"
         inkscape:connector-curvature="0" />
    </clipPath>
    <clipPath
       id="clip11">
      <path
         d="m 577,723 13,0 0,1 -13,0 z m 0,0"
         id="path4178"
         inkscape:connector-curvature="0" />
    </clipPath>
    <clipPath
       id="clip12">
      <path
         d="m 558,723 14,0 0,1 -14,0 z m 0,0"
         id="path4181"
         inkscape:connector-curvature="0" />
    </clipPath>
    <clipPath
       id="clip13">
      <path
         d="m 0,716 1,0 0,8 -1,0 z m 0,0"
         id="path4184"
         inkscape:connector-curvature="0" />
    </clipPath>
    <clipPath
       id="clip14">
      <path
         d="m 149,118 25,0 0,1 -25,0 z m 0,0"
         id="path4187"
         inkscape:connector-curvature="0" />
    </clipPath>
    <clipPath
       id="clip15">
      <path
         d="m 431,118 26,0 0,1 -26,0 z m 0,0"
         id="path4190"
         inkscape:connector-curvature="0" />
    </clipPath>
  </defs>
  <g
     id="surface851108"
     transform="translate(2531.4388,2417.5283)">
    <path
       id="path4387"
       style="fill:none;stroke:#0000ff;stroke-width:5.6692915;stroke-linecap:butt;stroke-linejoin:miter;stroke-miterlimit:2;stroke-dasharray:none;stroke-opacity:1"
       d="m -946.70173,-722.30176 6.54712,2.62678 6.50795,2.58763 6.6256,2.70511 6.58628,2.62696 6.6256,2.66595 6.50796,2.58762 6.58627,2.70512 6.50796,2.74443 6.58644,2.66612 6.46863,2.70511 6.6256,2.78376 6.4688,2.70512 6.50779,2.7836 6.58644,2.70527 6.50796,2.82293 6.50796,2.7836 6.50795,2.82276 6.5078,2.7836 6.46879,2.78376 6.50796,2.82276 6.50795,2.90125 6.50796,2.7836 6.50796,2.90125 6.46863,2.78376 6.42964,2.94042 6.46863,2.86208 6.50795,2.94041 6.42948,2.86209 6.46879,2.94041 6.42948,2.97957 6.46879,2.90125 6.42947,2.97974 6.50796,2.90125 6.35115,3.0189 6.42948,3.01889 6.39047,2.97958 6.50779,2.97973 6.39032,3.0189 6.42963,3.09722 6.39031,2.97958 6.39032,3.05822 6.42947,3.05806 6.35115,3.09722 6.31199,3.09722 6.39031,3.09739 6.42948,3.13638 6.31199,3.05806 6.35099,3.09739 6.42963,3.13638 6.27267,3.21503 6.42947,3.05806 6.31199,3.21488 6.27267,3.21487 6.42964,3.17571 6.27267,3.21487 6.27266,3.17571 6.312,3.21487 1.33292,0.58808 6.27266,3.29336 6.312,3.21487 6.27266,3.29336 6.31183,3.21487 6.31199,3.29336 6.19435,3.29335 6.31183,3.2932 6.27267,3.29336 6.23351,3.33252 6.27283,3.29335 6.31183,3.41085 6.2335,3.29336 6.15519,3.37168 6.31183,3.41101 6.23351,3.33252 6.15518,3.37168 6.19419,3.41084 6.31199,3.37185 6.19435,3.52849 12.38853,6.82185 6.23351,3.45017 6.0767,3.41084 6.19435,3.52866 6.2335,3.48933 18.46524,10.468 6.0767,3.52849 6.23351,3.48933 6.0767,3.60698 6.11587,3.48933 6.2335,3.60698 12.15341,7.21396 6.11587,3.56782 6.11586,3.64614 6.0767,3.56766 6.11587,3.60698 6.0767,3.60698 5.99838,3.68546 6.11586,3.60682 6.11587,3.68547 5.95906,3.72463 6.11586,3.72446 6.03754,3.64615 6.07671,3.72463 5.99822,3.6853 5.99838,3.72463 6.0767,3.68547 5.99822,3.80295 6.03755,3.72447 5.99821,3.80311 5.99822,3.76379 5.95906,3.80296 6.03755,3.80295 5.88073,3.80295 -30.38351,47.79229 -5.99822,-3.80296 -6.03754,-3.80295 -5.99822,-3.76379 -5.95906,-3.80312 -5.99838,-3.84211 -6.03739,-3.68547 -5.99838,-3.80295 -5.95906,-3.68531 -6.11586,-3.72463 -11.9966,-7.37077 -6.07671,-3.72447 -6.03738,-3.68546 -6.11602,-3.68531 -6.07654,-3.60698 -5.99838,-3.72463 -6.11587,-3.60698 -6.0767,-3.6853 -6.07671,-3.56782 -6.11586,-3.64614 -6.0767,-3.56766 -6.15503,-3.60698 -6.03754,-3.60698 -6.11586,-3.48933 -6.23351,-3.60698 -6.0767,-3.60698 -6.11587,-3.48933 -6.19434,-3.52849 -6.07671,-3.45017 -6.23351,-3.60698 -6.19434,-3.52849 -6.07671,-3.37185 -6.2335,-3.52849 -6.19419,-3.48933 -6.19435,-3.37169 -6.19434,-3.52865 -12.38854,-6.82185 -6.19434,-3.48933 -6.23351,-3.37169 -6.19435,-3.411 -6.19418,-3.2932 -6.31199,-3.411 -6.19435,-3.37169 -6.27267,-3.33252 -6.23351,-3.37168 -6.31183,-3.33252 -6.15518,-3.29336 -12.62382,-6.58671 -6.19435,-3.33236 -6.31183,-3.29336 -6.27283,-3.25419 -6.31183,-3.21488 -6.31199,-3.29335 -6.31183,-3.21487 -2.78348,-1.4113 -6.27283,-3.21504 -6.31183,-3.17571 -6.31199,-3.21487 -6.39031,-3.21487 -6.31183,-3.17571 -6.27283,-3.21487 -6.39032,-3.09722 -6.31182,-3.17571 -6.42948,-3.09738 -6.39047,-3.13639 -6.27267,-3.17571 -6.42947,-3.09722 -6.39032,-3.0189 -6.39031,-3.09738 -6.31199,-3.09723 -6.39031,-3.09722 -6.39031,-2.97973 -6.42948,-3.0189 -6.39031,-3.09722 -6.46879,-2.97974 -6.42948,-3.01873 -6.39031,-2.97974 -6.39047,-3.0189 -6.5078,-2.90125 -6.39047,-3.01889 -6.42948,-2.94042 -6.50795,-2.94041 -6.39031,-2.90125 -6.50796,-2.90124 -6.46863,-3.0189 -6.39032,-2.7836 -19.52386,-8.70375 -6.39032,-2.78376 -6.50795,-2.90125 -6.50796,-2.7836 -6.4688,-2.82276 -6.50779,-2.7836 -6.50796,-2.82293 -6.58643,-2.7836 -6.50796,-2.82292 -6.50796,-2.7836 -6.50779,-2.70512 -6.58644,-2.82292 -6.50796,-2.66595 -6.58627,-2.70528 -6.50796,-2.70527 -6.58644,-2.70512 -6.50779,-2.70527 -6.58644,-2.66595 -6.50796,-2.74444 -6.58628,-2.58763 -6.6256,-2.58762 -6.58628,-2.70528 -6.50795,-2.58746 -2.90113,-1.21549 20.77831,-52.69292 z"
       inkscape:connector-curvature="0"
       sodipodi:nodetypes="cccccccccccccccccccccccccccccccccccccccccccccccccccccccccccccccccccccccccccccccccccccccccccccccccccccccccccccccccccccccccccccccccccccccccccccccccccccccccccccccccccccccccccccccccccccccccccccccccccccccccccccccccccccccccccccccc" />
    <path
       id="path4399"
       style="fill:none;stroke:#0000ff;stroke-width:5.6692915;stroke-linecap:butt;stroke-linejoin:miter;stroke-miterlimit:2;stroke-dasharray:none;stroke-opacity:1"
       d="m -2243.5456,-1013.7991 1.3722,0 7.1352,0.5097 7.096,0.5096 6.9784,0.5098 7.1351,0.4704 7.0569,0.5098 7.0175,0.5096 7.096,0.5097 7.0961,0.5881 7.0177,0.5881 7.0958,0.5096 6.9785,0.6274 7.1352,0.5881 7.0569,0.5881 7.0175,0.588 7.096,0.7058 7.0175,0.5881 7.0961,0.6272 7.096,0.6666 6.9783,0.7449 7.096,0.6664 7.0177,0.7449 7.0961,0.6665 7.0175,0.7058 7.096,0.7057 6.9784,0.78406 7.096,0.82338 7.0175,0.66656 6.9785,0.82322 7.1352,0.82338 6.9784,0.7449 7.096,0.82338 7.0175,0.78405 6.9784,0.90171 7.1353,0.82338 13.9568,1.8034 7.1352,0.90187 6.9783,0.90171 7.0177,0.86254 7.096,0.94086 6.9784,0.86255 7.0175,1.01935 6.9784,0.9017 7.0177,1.01952 7.096,0.98003 7.0175,1.01935 6.9784,0.98019 7.0177,1.01936 7.0175,0.98019 6.9784,1.09768 6.9784,0.98019 7.096,1.09784 7.0177,1.137 6.9783,0.98003 7.0176,1.09784 6.9783,1.09784 7.0177,1.21532 1.4113,0.19598 6.9784,1.09784 7.0176,1.21532 6.8999,1.09784 6.9786,1.21533 7.0175,1.17617 6.9784,1.21548 7.0177,1.17617 6.9783,1.17616 6.8999,1.21533 7.0177,1.29381 6.9784,1.21549 7.0175,1.29365 6.9392,1.21549 13.9568,2.58763 6.9,1.33298 7.0175,1.37213 6.9784,1.29382 6.9001,1.29381 7.0175,1.41146 6.9,1.41146 6.9784,1.29382 6.9,1.4113 7.0176,1.3723 6.9,1.41146 7.0176,1.48979 6.8608,1.41146 6.8999,1.37214 7.0176,1.52911 6.9,1.52895 6.9001,1.45062 6.9783,1.52911 6.9392,1.48979 6.8608,1.48979 6.9,1.52911 7.0175,1.48978 6.9001,1.56828 6.8999,1.64659 6.9,1.48995 6.8999,1.56811 20.7,4.82247 6.9,1.68576 6.8999,1.60744 6.9001,1.72508 6.9,1.60744 6.8999,1.68592 6.7824,1.68592 13.8,3.37169 6.9,1.72508 6.8216,1.80341 6.8607,1.68592 6.9392,1.80341 6.7824,1.72508 6.8999,1.80358 -14.3095,54.88843 -6.7824,-1.80341 -6.9001,-1.80357 -6.8998,-1.68576 -6.7825,-1.80357 -6.9392,-1.72509 -6.8607,-1.68576 -6.9,-1.72508 -6.8216,-1.68592 -6.9001,-1.68593 -6.8998,-1.72492 -13.8,-3.29336 -6.9,-1.68592 -6.9001,-1.60743 -6.8999,-1.56828 -6.9,-1.6466 -6.8999,-1.56827 -13.8001,-3.21487 -6.8999,-1.48979 -6.9,-1.60743 -6.9784,-1.48995 -6.8999,-1.48979 -6.9,-1.52895 -6.9001,-1.48995 -7.0175,-1.48978 -6.9001,-1.48979 -6.8607,-1.52911 -7.0568,-1.41146 -6.8999,-1.48979 -6.8609,-1.41146 -7.0175,-1.37214 -6.9001,-1.41146 -6.9784,-1.41146 -6.9392,-1.37214 -6.9783,-1.41146 -6.8999,-1.29382 -7.0177,-1.4113 -6.8999,-1.29381 -6.9784,-1.41146 -7.0177,-1.29382 -6.8999,-1.29381 -6.9783,-1.29381 -7.0177,-1.21533 -6.8999,-1.29381 -6.9785,-1.29382 -7.0176,-1.21532 -6.9783,-1.17633 -7.0177,-1.33298 -6.8999,-1.17616 -6.9784,-1.21533 -7.0177,-1.09784 -7.0175,-1.17616 -6.9784,-1.21533 -6.9783,-1.09784 -7.0177,-1.21532 -3.0971,-0.50976 -6.9784,-1.05852 -7.0177,-1.137 -6.9784,-1.09768 -7.0175,-1.05868 -7.0177,-1.01935 -13.9567,-2.19552 -7.0176,-1.01935 -7.0177,-0.98019 -6.9783,-1.01935 -7.0176,-0.9802 -7.0176,-1.01935 -7.0961,-0.98003 -6.9783,-1.01935 -7.0176,-0.90187 -6.9783,-0.98003 -7.096,-0.90186 -7.0177,-0.90171 -6.9784,-0.9017 -7.0175,-0.90171 -7.096,-0.9017 -7.0176,-0.90187 -6.9785,-0.78405 -7.096,-0.90171 -7.0176,-0.78422 -6.9783,-0.94086 -7.096,-0.78422 -7.0176,-0.82322 -7.096,-0.78422 -7.0177,-0.6664 -7.0567,-0.82338 -7.0177,-0.82338 -7.096,-0.70557 -7.0175,-0.66657 -7.096,-0.70573 -7.0177,-0.70573 -7.096,-0.70573 -6.9784,-0.70573 -7.096,-0.66641 -7.0175,-0.70573 -7.0961,-0.58808 -7.0175,-0.62725 -7.096,-0.70573 -7.0569,-0.58808 -7.0175,-0.62741 -7.096,-0.58808 -6.9784,-0.5096 -7.1353,-0.58808 -7.096,-0.4706 -7.0175,-0.62724 -7.0961,-0.50959 -7.0568,-0.50976 -7.0175,-0.47044 -21.2881,-1.52911 -3.1362,-0.15641 z"
       inkscape:connector-curvature="0"
       sodipodi:nodetypes="ccccccccccccccccccccccccccccccccccccccccccccccccccccccccccccccccccccccccccccccccccccccccccccccccccccccccccccccccccccccccccccccccccccccccccccccccccccccccccccccccccccccccccccccccccccccccccccccccccccccccccccccccccccccccccccccc" />
    <path
       id="path4439"
       style="fill:none;stroke:#0000ff;stroke-width:5.6692915;stroke-linecap:butt;stroke-linejoin:miter;stroke-miterlimit:2;stroke-dasharray:none;stroke-opacity:1"
       d="m 1733.4318,2956.8369 -0.5487,-7.0963 -0.3921,-7.0963 -0.5097,-6.9786 -0.5488,-7.0964 -0.4312,-7.1356 -0.5489,-7.057 -0.6666,-7.018 -0.3921,-7.0963 -0.6663,-7.0178 -0.5489,-7.0963 -0.6666,-7.0963 -0.5487,-6.9787 -0.5489,-7.1355 -0.6665,-6.9786 -0.5881,-7.0963 -0.6664,-7.0963 -0.6665,-7.018 -0.6666,-7.0963 -0.6663,-6.9787 -0.6666,-7.0963 -0.8232,-7.0178 -0.7057,-7.1355 -0.6665,-6.9788 -0.8234,-7.0962 -0.784,-6.9788 -0.6665,-7.0963 -0.8232,-7.0178 -0.8233,-7.214 -0.7057,-6.9002 -0.9017,-6.9786 -0.8234,-7.214 -0.8231,-6.9395 -0.7842,-6.9395 -0.8625,-7.1355 -0.9409,-7.018 -0.941,-6.9786 -0.9408,-7.057 -0.7842,-7.0963 -0.98,-6.9395 -0.8233,-7.0963 -1.0585,-7.0963 -0.8233,-6.9395 -1.0978,-6.9787 -0.9017,-6.9787 -1.1369,-7.1354 -0.9017,-6.9395 -0.9801,-7.018 -1.0585,-7.0179 -0.9408,-7.0571 -1.0978,-6.9002 -1.0978,-7.018 -1.0585,-7.0178 -1.0976,-7.0963 -1.0978,-6.9003 -1.0585,-6.9787 -1.0978,-7.0963 -0.2744,-1.3722 -1.2153,-7.0179 -1.0978,-6.9394 -1.2153,-7.018 -1.0585,-7.0571 -1.2154,-7.0178 -1.2153,-6.9004 -1.0978,-7.057 -1.2152,-6.9003 -1.333,-7.057 -1.2154,-6.9003 -1.137,-7.0179 -1.3329,-7.0571 -1.3329,-6.9003 -1.2546,-6.9002 -1.2153,-7.0572 -1.3329,-6.9003 -1.3329,-7.0178 -1.3723,-6.9004 -1.2152,-6.9393 -1.4898,-7.0571 -1.3722,-6.9004 -1.3329,-6.9395 -1.3723,-7.0178 -1.3329,-6.9003 -1.4897,-6.9002 -1.529,-7.018 -1.333,-6.9002 -1.372,-6.9003 -1.4899,-7.057 -1.4898,-6.7827 -1.4897,-7.0572 -1.4505,-6.9001 -1.5291,-6.9004 -1.4897,-6.9003 -1.6074,-6.9002 -1.4897,-6.9003 -1.6074,-7.0178 -1.529,-6.9395 -1.6074,-6.9004 -1.4897,-6.9002 -1.6074,-6.9003 -1.6467,-6.7827 -1.6073,-7.0178 -1.6466,-6.9003 -1.6073,-6.8219 -1.6467,-6.9002 -1.7642,-6.9003 -1.6074,-6.9002 -1.6465,-6.7827 -1.725,-6.9003 -1.6074,-6.9002 -1.8818,-6.9003 -1.6859,-6.7827 -1.6073,-7.0178 -1.8818,-6.8219 -1.7642,-6.9003 -1.7642,-6.861 -0.3921,-1.3723 -54.8469,14.3494 0.8231,2.9797 1.7251,6.9002 1.7643,6.9003 1.7642,6.7827 1.8033,6.9002 1.725,6.9003 1.6074,6.7827 1.8035,6.9002 1.7248,6.9395 1.6075,6.9003 1.6857,6.9002 1.6074,6.9004 1.725,6.9003 1.6467,6.7825 1.4897,6.9004 1.6466,6.9003 1.6073,6.9002 1.6074,7.0571 1.6074,6.9002 1.6467,6.7827 1.4897,7.018 1.6074,6.7825 1.529,6.9003 1.4506,6.9004 1.5288,7.057 1.4898,6.9003 1.4505,6.9002 1.5291,7.018 1.3329,6.8218 1.6074,6.9002 1.3722,7.018 1.3721,6.9002 1.4899,7.0571 1.3329,6.9003 1.4897,6.9002 1.2153,7.018 1.4899,6.9395 1.3721,6.9002 1.3722,7.018 1.2153,6.9393 1.4505,6.9003 1.2153,7.0572 1.3723,6.9002 1.2152,7.0571 1.2155,7.0178 1.3329,6.7827 1.2544,7.018 1.2155,7.057 1.2544,6.9003 1.1763,7.0179 1.2153,6.9395 2.4307,14.0358 1.2153,6.9395 1.0977,7.057 1.2153,7.018 1.0978,6.9001 0.3919,3.2151 1.2155,6.9395 1.0976,7.0569 1.0978,7.018 1.0585,6.9787 0.9801,6.9787 1.0585,6.9001 1.0586,7.1357 1.0977,6.9786 0.9801,7.0179 1.0585,6.9003 0.941,7.0963 1.0584,7.0963 0.9802,6.9395 0.8232,7.057 1.0978,7.018 0.9016,6.9787 0.8234,6.9786 0.9408,7.1355 0.941,6.9787 0.8625,7.0179 0.9017,7.0964 1.6465,14.0356 0.941,7.0571 0.8233,6.9787 0.8232,7.0963 0.7842,7.018 0.7055,7.0178 0.8234,7.0572 0.7842,6.9393 0.8232,7.214 0.7841,6.9786 0.7057,7.0964 0.7841,6.9786 0.7057,7.0963 0.6664,7.018 0.6665,7.0963 0.5881,7.0179 0.7448,7.0963 0.7057,6.9786 0.5489,7.1355 0.6664,7.0963 0.6665,6.9788 0.5489,7.0962 0.5489,7.018 0.5488,7.0963 0.6665,7.057 0.5489,7.0571 0.5489,7.0963 0.5096,7.0963 0.5489,6.9787 0.5489,7.1355 0.5487,7.0963 0.3921,6.9786 0.3921,7.0964 0.588,7.1356 56.6112,-3.7246 z"
       inkscape:connector-curvature="0"
       sodipodi:nodetypes="ccccccccccccccccccccccccccccccccccccccccccccccccccccccccccccccccccccccccccccccccccccccccccccccccccccccccccccccccccccccccccccccccccccccccccccccccccccccccccccccccccccccccccccccccccccccccccccccccccccccccccccccccccccccccccccccccccccccc" />
    <path
       id="path4451"
       style="fill:none;stroke:#0000ff;stroke-width:5.6692915;stroke-linecap:butt;stroke-linejoin:miter;stroke-miterlimit:2;stroke-dasharray:none;stroke-opacity:1"
       d="m 1074.562,947.48562 0.6664,1.21533 3.8029,5.99847 3.8811,5.88098 3.803,5.99847 3.8028,6.0378 3.6851,5.95931 3.7637,6.03779 3.7244,6.03764 3.7637,6.03779 3.7636,5.9985 3.646,6.1163 3.6851,5.9984 3.7637,5.9985 3.6461,6.077 3.7243,6.1554 3.6069,5.9593 3.6851,6.1161 3.6069,6.077 3.5676,6.0769 3.7637,6.1162 3.5283,6.1161 7.2921,12.1539 3.5284,6.1553 3.4892,6.0769 3.6851,6.1163 3.4109,6.1945 3.646,6.0769 3.4892,6.1161 3.5283,6.1947 3.4109,6.1161 3.5283,6.1554 3.4892,6.2338 3.5285,6.0769 3.5284,6.2338 3.3715,6.1945 3.5285,6.1946 3.3715,6.1946 3.5284,6.1946 3.3715,6.1944 3.4109,6.1946 3.3715,6.1946 3.4109,6.3121 3.2932,6.2338 3.4499,6.1946 3.3717,6.2729 3.2539,6.2338 3.3324,6.3123 3.45,6.1946 3.2539,6.2729 3.2932,6.3121 3.3324,6.1554 3.2539,6.3515 3.254,6.2729 3.2539,6.3514 3.2541,6.2338 3.2147,6.3512 3.2539,6.2731 0.7057,1.2938 3.1364,6.3513 3.2148,6.2731 3.2539,6.2729 3.254,6.4298 3.0971,6.2731 3.1364,6.312 3.2539,6.3906 2.9797,6.273 3.2147,6.4299 3.1364,6.3905 3.1363,6.3121 3.0972,6.3908 3.1363,6.4297 3.0972,6.273 2.9795,6.3905 3.0972,6.3906 3.0186,6.4299 3.0973,6.3906 2.9794,6.3906 2.9405,6.3906 3.0186,6.5082 3.0188,6.3906 3.0579,6.4297 2.9796,6.3906 2.862,6.4691 2.9403,6.4297 3.0187,6.5082 2.9795,6.4298 2.8228,6.5082 2.9011,6.3514 2.9011,6.5082 3.0188,6.4691 2.8227,6.5082 2.7443,6.3906 2.9403,6.5474 2.8619,6.5082 2.8228,6.4689 2.8618,6.5083 2.7052,6.5082 2.8227,6.5082 2.8619,6.5083 2.7443,6.5474 2.8228,6.5082 2.705,6.5082 2.8229,6.5082 2.705,6.6258 2.6266,6.5082 2.7052,6.5474 2.6658,6.469 2.7444,6.6259 2.7051,6.5082 2.7052,6.6258 2.6658,6.6258 2.6267,6.5083 2.666,6.5474 2.6267,6.5865 2.6658,6.6259 -52.7692,20.8577 -2.5875,-6.5083 -2.705,-6.6259 -2.5875,-6.6257 -2.7443,-6.5082 -2.5875,-6.5867 -2.6659,-6.6257 -2.7051,-6.5083 -2.7444,-6.5473 -2.7051,-6.5083 -2.6659,-6.6259 -2.5875,-6.5082 -2.862,-6.5865 -2.705,-6.5083 -2.8228,-6.469 -2.705,-6.5083 -2.7443,-6.5474 -2.8228,-6.5865 -2.862,-6.5082 -2.7834,-6.5083 -2.9012,-6.469 -2.7835,-6.5081 -2.7443,-6.5082 -2.9794,-6.5083 -2.862,-6.3514 -2.9403,-6.5082 -2.7443,-6.4691 -2.9796,-6.4297 -2.9795,-6.5082 -2.8228,-6.5083 -2.9794,-6.3905 -3.0188,-6.469 -2.8228,-6.3514 -2.9794,-6.469 -2.9797,-6.5083 -3.0579,-6.3905 -3.0188,-6.4298 -3.0187,-6.3906 -2.9403,-6.3905 -2.9795,-6.3906 -3.0972,-6.3906 -3.0188,-6.4299 -3.0971,-6.4298 -3.1364,-6.3514 -3.0971,-6.4297 -3.0971,-6.3906 -3.1364,-6.2731 -3.0971,-6.4297 -3.0972,-6.273 -3.1756,-6.3905 -3.0971,-6.3515 -3.2539,-6.3905 -3.0581,-6.273 -3.1754,-6.4299 -3.2541,-6.2337 -3.1756,-6.3515 -3.1755,-6.2337 -1.4506,-2.862 -3.2539,-6.3122 -3.2147,-6.2729 -3.2932,-6.3123 -3.2148,-6.2729 -3.2932,-6.3123 -3.2539,-6.2729 -3.2541,-6.2338 -3.3715,-6.3121 -3.3324,-6.3122 -3.2932,-6.1946 -3.4107,-6.2338 -3.2541,-6.2338 -3.3715,-6.3512 -3.4107,-6.1946 -3.3717,-6.1555 -3.3715,-6.2338 -3.4109,-6.2729 -6.7431,-12.389 -3.5283,-6.2338 -3.3717,-6.1946 -3.5284,-6.1946 -3.4107,-6.1161 -3.4893,-6.1946 -3.5284,-6.1945 -3.4892,-6.1946 -3.5283,-6.1161 -3.4892,-6.1946 -3.45,-6.077 -3.646,-6.1946 -3.4892,-6.1161 -3.5677,-6.1161 -3.4891,-6.1946 -3.646,-6.1162 -3.5677,-6.0769 -3.6068,-6.1161 -3.5675,-6.077 -3.646,-6.1161 -3.4894,-6.1161 -3.8028,-6.0378 -3.5283,-6.0378 -3.7637,-6.0768 -3.6851,-6.1163 -3.6462,-5.9985 -3.6851,-6.0769 -3.646,-6.0378 -3.7636,-6.1161 -3.6853,-5.9594 -3.7637,-6.0376 -3.6851,-5.9595 -3.8813,-6.0376 -3.6851,-6.077 -7.6058,-11.91857 -3.8028,-5.99864 -3.7636,-5.99847 -1.6074,-2.58762 z"
       inkscape:connector-curvature="0"
       sodipodi:nodetypes="cccccccccccccccccccccccccccccccccccccccccccccccccccccccccccccccccccccccccccccccccccccccccccccccccccccccccccccccccccccccccccccccccccccccccccccccccccccccccccccccccccccccccccccccccccccccccccccccccccccccccccccccccccccccccccccccccccccc" />
    <path
       style="fill:none;stroke:#000000;stroke-width:2.83464575;stroke-linecap:butt;stroke-linejoin:miter;stroke-miterlimit:2;stroke-dasharray:none;stroke-opacity:1"
       d="m 3137.8525,3237.5896 -5669.2913,0"
       id="path4481"
       inkscape:connector-curvature="0" />
    <path
       style="fill:none;stroke:#000000;stroke-width:2.83464599;stroke-linecap:butt;stroke-linejoin:miter;stroke-miterlimit:2;stroke-dasharray:none;stroke-opacity:1"
       d="m -2517.2656,3251.7634 0,-5669.2919"
       id="path4483"
       inkscape:connector-curvature="0" />
    <path
       style="fill:none;stroke:#000000;stroke-width:2.83464575;stroke-linecap:butt;stroke-linejoin:miter;stroke-miterlimit:2;stroke-dasharray:none;stroke-opacity:1"
       d="m -2531.4389,-2403.3553 5669.2915,0"
       id="path4485"
       inkscape:connector-curvature="0" />
    <path
       style="fill:none;stroke:#000000;stroke-width:2.83464575;stroke-linecap:butt;stroke-linejoin:miter;stroke-miterlimit:2;stroke-dasharray:none;stroke-opacity:1"
       d="m 3123.6793,-2417.5285 0,5669.2913"
       id="path4487"
       inkscape:connector-curvature="0" />
    <path
       style="fill:none;stroke:#000000;stroke-width:2.83464575;stroke-linecap:butt;stroke-linejoin:miter;stroke-miterlimit:2;stroke-dasharray:none;stroke-opacity:1"
       d="m 303.20687,-2417.5285 0,5669.2913"
       id="path4489"
       inkscape:connector-curvature="0" />
    <path
       style="fill:none;stroke:#000000;stroke-width:2.83464575;stroke-linecap:butt;stroke-linejoin:miter;stroke-miterlimit:2;stroke-dasharray:none;stroke-opacity:1"
       d="m 3137.8527,417.11717 -5669.2915,0"
       id="path4491"
       inkscape:connector-curvature="0" />
    <g
       clip-path="url(#clip11)"
       id="g4583"
       style="clip-rule:nonzero">
      <path
         style="fill:none;stroke:#000000;stroke-width:3.13848996;stroke-linecap:butt;stroke-linejoin:miter;stroke-miterlimit:2;stroke-opacity:1"
         d="m 4191.1566,4394.4752 8.0102,-60.5348 7.9378,60.5348 -15.948,0"
         transform="matrix(0,0.161903,0.161903,0,-123,46)"
         id="path4585"
         inkscape:connector-curvature="0" />
    </g>
    <g
       clip-path="url(#clip12)"
       id="g4587"
       style="clip-rule:nonzero">
      <path
         style="fill:none;stroke:#000000;stroke-width:3.13848996;stroke-linecap:butt;stroke-linejoin:miter;stroke-miterlimit:2;stroke-opacity:1"
         d="m 4207.1046,4221.0741 -7.9378,60.5348 -8.0102,-60.5348 15.948,0"
         transform="matrix(0,0.161903,0.161903,0,-123,46)"
         id="path4589"
         inkscape:connector-curvature="0" />
    </g>
    <path
       id="path4473-4-8-2-1"
       style="fill:none;stroke:#0000ff;stroke-width:5.6692915;stroke-linecap:butt;stroke-linejoin:miter;stroke-miterlimit:2;stroke-dasharray:none;stroke-opacity:1"
       d="m 353.77986,3225.5324 0.15763,4.1611 -0.24623,7.6093 85.39715,-0.013 -0.19485,-7.5991 5e-5,-8.32 -0.117,-4.1596 0,-7.1352 -0.117,-7.057 -0.078,-7.018 -0.039,-7.0962 -0.2744,-7.0964 -0.078,-7.0963 -0.196,-7.0961 -0.078,-7.0963 -0.2353,-7.0964 -0.196,-7.0179 -0.3137,-7.0963 -0.196,-7.0963 -0.3136,-7.0964 -0.2745,-7.0963 -0.2744,-7.0178 -0.6272,-14.1926 -0.7057,-14.1926 -0.3921,-7.0179 -0.784,-14.1926 -0.4313,-7.0963 -0.4704,-6.9787 -0.5097,-7.1354 -0.4313,-7.0963 -0.4312,-7.018 -0.6664,-7.057 -0.4706,-7.0963 -0.5096,-7.018 -0.588,-7.0963 -0.6274,-7.0963 -0.5881,-7.0179 -0.6272,-7.0963 -0.6665,-6.9786 -0.6272,-7.0963 -0.6666,-7.0964 -0.6664,-7.0178 -0.7057,-7.0963 -0.7448,-7.018 -0.6666,-7.0963 -0.8232,-6.9787 -0.7841,-7.1354 -0.7449,-6.9787 -0.784,-6.9787 -0.9019,-7.1354 -0.784,-6.9789 -0.9016,-6.9786 -0.7842,-7.1355 -0.9017,-6.9786 -0.9017,-7.0179 -0.9801,-7.0571 -0.9408,-7.018 -0.9802,-7.0178 -0.9017,-6.9787 -1.0193,-7.0178 -0.9801,-7.1357 -0.9802,-6.9395 -1.1369,-7.0178 -0.9408,-7.0178 -1.137,-7.0572 -1.0978,-6.9395 -1.1368,-7.0178 -1.0586,-6.9786 -1.2153,-7.0964 -1.0978,-6.9003 -1.2153,-6.9787 -1.2152,-7.0179 -1.1763,-6.9002 -1.1761,-6.9787 -1.333,-7.0571 -1.1761,-6.9787 -1.2937,-6.9003 -1.333,-6.9787 -1.2546,-7.0178 -1.2937,-6.9004 -1.4506,-7.0569 -1.2937,-6.9395 -1.4113,-6.9004 -1.3722,-6.9002 -1.4114,-7.0179 -1.4113,-6.8611 -1.4898,-7.0179 -1.3721,-6.9002 -1.4897,-6.9004 -1.5291,-7.0178 -1.4897,-6.8612 -1.4897,-6.9001 -1.6074,-6.9004 -1.4899,-6.9001 -1.6074,-6.9004 -1.6073,-7.0963 -1.6466,-6.9002 -1.529,-6.9003 -1.7642,-6.7827 -1.5682,-6.9002 -1.6857,-6.9003 -1.725,-6.9003 -1.6858,-6.9002 -1.7251,-6.9395 -1.8033,-6.7435 -1.6858,-6.9002 -1.8034,-6.9004 -1.8035,-6.8219 -1.7642,-6.9002 -1.8033,-6.7434 -1.8818,-6.9004 -1.8426,-6.7825 -1.921,-6.9003 -1.8427,-6.7827 -1.9603,-6.9002 -1.8818,-6.7828 -1.8818,-6.7434 -1.9993,-6.7825 -1.9995,-6.9004 -1.8818,-6.7827 -2.0387,-6.7433 -2.0777,-6.8219 -1.9995,-6.7435 -1.9995,-6.9002 -2.1171,-6.7827 -2.0778,-6.7826 -2.0777,-6.7434 -1.88825,-6.3184 0.001,349.5956 0.23697,0.6382 1.33313,7.057 1.2936,7.018 1.2937,6.9001 1.2938,6.9787 1.2154,7.018 1.1762,7.0178 1.2152,6.9787 1.1761,6.9003 1.2155,7.0178 1.2153,6.9787 1.0584,6.9395 1.137,7.0963 2.1954,13.9575 1.0978,7.0178 1.0193,7.0179 1.0585,6.9788 1.0193,7.0961 0.9802,6.9789 1.0193,7.0178 0.9016,6.9786 0.9802,7.018 0.9016,7.0962 0.941,7.018 0.9017,7.0178 0.8625,6.9786 0.9017,7.0964 0.7842,7.0179 0.9408,6.9787 0.784,7.0963 0.7842,7.0178 0.7057,7.0964 0.8232,6.9786 0.7057,7.0963 0.7842,7.018 0.7057,7.0963 0.7055,7.0179 0.5881,7.0963 0.7057,6.9786 0.588,7.0963 0.7057,7.0963 0.5881,7.0179 0.5097,7.0963 0.6272,7.018 0.5881,7.0963 0.4704,7.057 0.5097,7.018 0.5096,7.0963 0.4706,7.1354 0.4313,6.9787 0.5095,7.0963 0.7842,14.1926 0.3919,7.0179 0.3921,7.0963 0.4313,7.0963 0.2744,7.0963 0.3136,7.0963 0.3137,7.0178 0.2744,7.0963 0.3136,7.0964 0.1961,7.0963 0.3136,7.0963 0.196,7.0179 0.3921,14.1927 0.117,7.0961 0.196,7.0963 0.1576,14.1926 0.1576,7.018 0.078,7.057 0.0779,7.135 z"
       inkscape:connector-curvature="0"
       sodipodi:nodetypes="cccccccccccccccccccccccccccccccccccccccccccccccccccccccccccccccccccccccccccccccccccccccccccccccccccccccccccccccccccccccccccccccccccccccccccccccccccccccccccccccccccccccccccccccccccccccccccccccccccccccc" />
    <path
       id="path4473-4-8-4"
       style="fill:none;stroke:#0000ff;stroke-width:5.6692915;stroke-linecap:butt;stroke-linejoin:miter;stroke-miterlimit:2;stroke-dasharray:none;stroke-opacity:1"
       d="m -2513.4606,281.20192 2.3216,4.8e-4 7.0963,0.078 7.0176,0 7.096,0.117 7.096,0 7.096,0.078 7.096,0.1961 7.096,0.078 7.1352,0.1576 6.9784,0.1577 7.096,0.2353 7.096,0.156 7.096,0.2353 7.1353,0.1959 7.096,0.3137 6.9784,0.1959 7.096,0.2745 7.1352,0.3136 7.096,0.3138 7.0568,0.2745 7.0176,0.4312 7.096,0.392 7.096,0.2744 7.096,0.4313 6.9784,0.4704 7.1352,0.4313 7.096,0.3921 7.096,0.4704 6.9784,0.549 7.1352,0.4704 7.096,0.5098 6.9784,0.588 7.096,0.5096 7.096,0.5881 7.0175,0.6274 7.096,0.5489 7.0177,0.6273 7.0961,0.5881 7.096,0.7449 6.9783,0.5489 7.0961,0.7057 7.0175,0.7449 7.096,0.7841 7.0175,0.7057 7.096,0.7842 6.9786,0.6664 7.0958,0.8234 7.0177,0.7841 6.9784,0.8233 7.096,0.9017 7.0175,0.7843 6.9786,0.9017 7.0958,0.9017 14.0352,1.8034 6.9784,1.0193 7.096,0.8626 7.0177,1.0193 6.9784,0.9802 7.0175,1.0194 6.9784,0.9802 7.0177,1.0978 6.9783,1.0194 7.0176,1.0976 7.096,1.0979 6.9,1.0976 7.0176,1.0979 6.9783,1.2153 7.0177,1.0979 6.9784,1.1761 7.0175,1.2153 6.9786,1.2155 7.0175,1.2154 6.9,1.2938 6.9784,1.1761 7.0175,1.333 7.0176,1.2547 6.8609,1.3329 7.0175,1.2939 6.9,1.3723 6.9784,1.2936 6.9392,1.4115 7.0176,1.4114 6.8607,1.3722 7.0177,1.5291 6.8999,1.4114 6.9785,1.4898 6.8999,1.3722 6.9,1.5291 6.8999,1.4898 7.0177,1.6074 6.8999,1.49 6.9,1.6074 6.9001,1.4898 6.8607,1.6074 6.9392,1.6074 6.8999,1.7251 6.8609,1.5683 6.9392,1.6858 6.8607,1.6076 6.9392,1.7249 6.7824,1.6859 6.8999,1.8036 6.9001,1.6857 6.7822,1.8036 6.9001,1.7249 6.9392,1.8036 6.7824,1.8034 6.8999,1.8819 6.7824,1.8036 6.8215,1.7642 6.9001,1.9211 6.7824,1.8819 6.8216,1.921 6.8998,1.8819 6.7825,1.9996 6.8215,1.921 13.5648,3.9991 6.8216,1.9996 6.7822,1.9995 6.8216,1.9994 6.7824,2.1172 6.7039,2.0779 6.7824,1.9995 6.8216,2.0779 5.5668,1.6271 -349.8477,0.0196 0.4971,-0.003 -7.0175,-1.29402 -6.9784,-1.333 -6.9,-1.2938 -7.0175,-1.1761 -6.9786,-1.3332 -7.0175,-1.1761 -6.8607,-1.2154 -7.0177,-1.1761 -7.0175,-1.2547 -6.9784,-1.0585 -7.0177,-1.1762 -6.9784,-1.137 -14.0352,-2.1955 -6.9784,-1.0978 -6.9783,-1.0194 -7.0176,-1.0585 -7.0177,-0.9802 -6.9783,-1.0193 -7.096,-1.0194 -7.0176,-0.9017 -6.9783,-1.0193 -7.0177,-0.8626 -7.0961,-0.941 -6.9783,-0.9017 -7.0176,-0.8626 -7.096,-0.9408 -7.0177,-0.7843 -6.9783,-0.8625 -7.096,-0.8232 -7.0176,-0.8234 -7.096,-0.784 -7.0175,-0.7058 -6.9786,-0.7842 -7.0958,-0.7057 -7.0177,-0.7056 -14.192,-1.4114 -6.9784,-0.5881 -7.1352,-0.7058 -6.9783,-0.5881 -7.0961,-0.588 -7.0176,-0.6273 -7.0961,-0.4706 -7.0958,-0.6272 -6.9785,-0.4705 -7.1352,-0.5097 -14.192,-1.0194 -6.9784,-0.4704 -7.096,-0.4313 -7.096,-0.5097 -6.9784,-0.392 -7.096,-0.3921 -7.1352,-0.2744 -7.096,-0.4313 -7.096,-0.2745 -6.9784,-0.4312 -7.1352,-0.2745 -7.096,-0.2745 -7.096,-0.2351 -7.096,-0.3136 -7.0176,-0.1962 -7.096,-0.2744 -7.096,-0.2352 -7.0961,-0.078 -14.1919,-0.3919 -6.9784,-0.078 -7.1353,-0.117 -7.096,-0.117 -7.096,-0.078 -7.096,0 -7.0959,-0.1163 -7.1995,6.9e-4 -6.2596,0.18551 -0.027,-85.48246 z"
       inkscape:connector-curvature="0"
       sodipodi:nodetypes="cccccccccccccccccccccccccccccccccccccccccccccccccccccccccccccccccccccccccccccccccccccccccccccccccccccccccccccccccccccccccccccccccccccccccccccccccccccccccccccccccccccccccccccccccccccccccccccccccccccccccc" />
    <path
       id="path4477"
       style="fill:none;stroke:#0000ff;stroke-width:5.66929102;stroke-linecap:butt;stroke-linejoin:miter;stroke-miterlimit:2;stroke-dasharray:none;stroke-opacity:1"
       d="m -2496.2885,-2354.8978 7.0967,0.1177 7.096,0 7.096,0.078 6.6541,0.088 7.096,0.1176 7.0176,0.079 7.096,0.1177 7.096,0.078 7.096,0.1177 7.096,0.079 7.096,0.1176 7.1352,0.1177 6.9784,0.196 7.096,0.079 7.096,0.196 7.1353,0.1177 7.096,0.196 7.0568,0.196 7.0176,0.1961 7.1352,0.196 7.0568,0.196 7.096,0.1961 7.096,0.2352 7.096,0.2744 7.0175,0.1961 14.192,0.6273 7.0961,0.196 7.096,0.2744 7.0177,0.3137 7.0958,0.3136 7.096,0.2745 7.096,0.3136 7.0961,0.3921 7.0177,0.3136 7.096,0.2745 7.096,0.4312 7.096,0.3921 7.0958,0.3136 6.9786,0.3921 7.1352,0.3921 14.192,0.7841 6.9784,0.4313 7.1351,0.4704 7.0569,0.3921 7.1352,0.4313 6.9783,0.4704 7.096,0.5097 7.0961,0.3921 7.0175,0.5097 14.192,1.0193 6.9784,0.5097 7.1353,0.4705 7.096,0.5096 6.9784,0.5881 7.096,0.5097 7.1352,0.5881 6.9784,0.5097 7.096,0.5881 7.096,0.6273 7.0175,0.5881 14.192,1.1761 7.0177,0.6273 7.096,0.5881 6.9784,0.5881 7.096,0.7057 7.0176,0.6273 7.096,0.6665 7.096,0.7057 7.0175,0.6273 7.096,0.6665 6.9784,0.7058 7.096,0.7057 7.0177,0.7057 7.096,0.8233 7.0176,0.6665 7.096,0.7057 6.9783,0.8233 7.0961,0.6665 7.0175,0.8234 7.0177,0.7841 7.096,0.8233 6.9784,0.7841 7.096,0.7842 6.9783,0.8233 7.0961,0.7841 7.0175,0.8233 7.0177,0.9018 7.096,0.7841 6.9784,0.9017 7.0175,0.7842 7.096,0.9017 7.0177,0.9409 6.9784,0.8626 7.096,0.9017 6.9784,0.9018 14.0352,1.8035 7.096,1.0193 6.9784,0.9017 7.0175,0.9802 6.9784,0.9017 7.0177,1.0194 7.096,0.9802 7.0175,1.0193 6.9784,0.9802 7.0177,1.0193 7.0175,0.9802 6.9784,1.0193 6.9783,0.9802 7.096,1.0977 7.0177,1.0194 6.9784,1.0978 7.0175,1.0978 6.9784,0.9801 14.0352,2.1955 6.9784,1.0978 6.9784,1.137 7.0177,1.1762 7.0175,1.0977 6.9784,1.0978 7.0177,1.2154 6.9783,1.0978 6.8999,1.2154 7.0177,1.1761 6.9784,1.2154 7.0175,1.1762 7.0177,1.2154 6.9784,1.1762 6.9783,1.2154 6.9392,1.2154 7.0176,1.2938 6.9783,1.1761 6.9786,1.3331 6.8999,1.1761 7.0177,1.2938 6.9783,1.333 6.8999,1.2938 7.0177,1.2939 6.9784,1.2937 6.8999,1.2938 7.0177,1.2939 6.9783,1.4114 6.9001,1.2938 7.0175,1.2938 6.9001,1.4114 7.0175,1.4114 6.8607,1.3722 7.0177,1.333 6.8999,1.3722 6.9784,1.4115 6.9392,1.4898 6.9783,1.4114 6.9001,1.4114 6.9,1.4899 7.0176,1.4114 6.8607,1.4898 6.9392,1.4114 6.9784,1.4899 13.7999,2.9796 6.9785,1.5291 6.9391,1.4898 6.9,1.4898 6.8608,1.4899 6.9392,1.6074 7.0177,1.5291 6.8607,1.6074 6.9,1.4898 6.8999,1.5683 6.9001,1.6074 6.9392,1.6075 6.8607,1.6074 6.9001,1.6075 6.8998,1.5682 6.9001,1.6075 6.8999,1.725 6.9,1.5683 6.8999,1.6074 6.9001,1.7251 13.7999,3.3717 6.7824,1.6075 6.9001,1.725 13.7999,3.3718 6.8999,1.8034 6.8215,1.7251 6.9001,1.6859 6.9,1.8035 6.7823,1.6858 13.8001,3.607 1.3937,0.7371 1.6359,87.8267 -1.3508,-0.2236 -3.9529,-1.0283 -6.9392,-1.8034 -6.7824,-1.8035 -6.8999,-1.8035 -6.7824,-1.8035 -6.9001,-1.6859 -6.8999,-1.8034 -6.8215,-1.7251 -6.9001,-1.8035 -6.8607,-1.6858 -6.9001,-1.6859 -6.8215,-1.7251 -6.8999,-1.6858 -6.8609,-1.6859 -6.9392,-1.7251 -6.8999,-1.6858 -6.9,-1.6075 -6.8999,-1.6858 -6.8218,-1.6075 -6.8607,-1.7251 -6.9392,-1.5682 -6.8607,-1.6074 -6.9392,-1.6075 -6.8999,-1.6075 -6.8609,-1.6074 -7.0175,-1.5682 -6.9001,-1.6075 -6.8999,-1.4898 -13.8001,-3.2149 -6.8999,-1.4899 -6.8607,-1.529 -7.0177,-1.4898 -6.8999,-1.5683 -6.9392,-1.529 -6.8609,-1.4898 -7.0175,-1.4115 -6.9,-1.4898 -6.8608,-1.4898 -7.0568,-1.5291 -6.8999,-1.3722 -6.8609,-1.4114 -7.0175,-1.4898 -6.9001,-1.4114 -6.9783,-1.4115 -6.9392,-1.3722 -6.9784,-1.4114 -6.8999,-1.4114 -7.0177,-1.3722 -6.8999,-1.4114 -6.9784,-1.2938 -6.9,-1.4115 -7.0175,-1.2938 -6.8609,-1.4114 -7.0176,-1.2938 -6.9783,-1.2938 -6.9392,-1.2938 -6.9784,-1.333 -7.0177,-1.2938 -6.8999,-1.2938 -6.9783,-1.1762 -7.0177,-1.333 -6.8999,-1.2938 -7.0177,-1.1762 -6.9784,-1.2154 -6.9784,-1.2937 -7.0175,-1.2154 -6.9,-1.1762 -6.9784,-1.2154 -7.0177,-1.2154 -7.0175,-1.1762 -6.9784,-1.0978 -7.0177,-1.2154 -6.9784,-1.1761 -7.0175,-1.137 -7.0175,-1.0978 -6.9786,-1.1762 -6.9783,-1.0977 -14.0353,-2.1956 -6.9783,-1.0977 -7.0176,-1.0978 -6.9783,-1.137 -7.0177,-0.9801 -6.9784,-1.0978 -7.0175,-1.0194 -6.9784,-1.0977 -7.0177,-0.9802 -7.0175,-1.0193 -6.9784,-0.9802 -7.096,-1.0194 -6.9784,-0.9801 -7.0177,-1.0194 -6.9783,-0.9801 -7.0176,-0.9018 -7.096,-1.0193 -7.0177,-0.9018 -6.9783,-0.9801 -7.0176,-0.9017 -6.9783,-0.9018 -7.096,-0.9017 -14.0353,-1.8035 -7.096,-0.9018 -6.9784,-0.9017 -7.0176,-0.9017 -7.0959,-0.7842 -6.9785,-0.9017 -7.0176,-0.8233 -7.096,-0.7841 -6.9783,-0.9018 -7.1352,-0.7841 -6.9784,-0.8233 -7.0177,-0.7842 -7.096,-0.8233 -6.9784,-0.6665 -7.096,-0.8233 -7.0175,-0.7841 -7.096,-0.7057 -7.0177,-0.7058 -7.096,-0.7841 -6.9784,-0.7057 -7.1352,-0.7057 -6.9783,-0.7057 -7.0961,-0.7057 -7.0175,-0.7057 -7.096,-0.6665 -6.9784,-0.6273 -7.096,-0.7057 -7.0177,-0.5881 -7.0567,-0.7057 -7.1353,-0.5881 -7.0175,-0.5881 -7.096,-0.6273 -6.9784,-0.5881 -7.096,-0.5881 -7.096,-0.6273 -7.0176,-0.5881 -7.096,-0.5881 -7.096,-0.5097 -7.0177,-0.5881 -14.192,-1.0193 -6.9784,-0.5881 -14.192,-1.0194 -7.0176,-0.4704 -7.096,-0.5097 -7.096,-0.3921 -7.0175,-0.5097 -7.096,-0.5096 -7.096,-0.3921 -7.0961,-0.5097 -6.9783,-0.392 -7.1354,-0.3921 -7.0958,-0.3921 -7.096,-0.4312 -7.0177,-0.3921 -7.0569,-0.392 -7.1351,-0.3921 -7.0961,-0.3137 -6.9783,-0.392 -7.096,-0.3921 -7.0961,-0.3136 -7.1351,-0.3137 -6.9784,-0.2744 -7.096,-0.3921 -14.192,-0.6273 -7.0961,-0.196 -7.096,-0.2744 -7.0175,-0.3137 -7.096,-0.196 -7.096,-0.3137 -7.096,-0.196 -7.096,-0.3137 -7.0176,-0.196 -28.3841,-0.7841 -7.096,-0.1176 -7.096,-0.1961 -7.0176,-0.196 -7.096,-0.078 -7.0568,-0.1961 -7.1352,-0.1176 -7.096,-0.078 -7.096,-0.1177 -7.0176,-0.1176 -7.096,-0.079 -7.096,-0.1176 -7.096,-0.079 -7.096,0 -7.096,-0.1176 -7.1352,0 -7.096,-0.079 -21.1706,4e-4 -1.6315,-0.1168 -1.6314,0.1172 -0.9684,0.2175 0.2725,-85.5953 z"
       inkscape:connector-curvature="0"
       sodipodi:nodetypes="ccccccccccccccccccccccccccccccccccccccccccccccccccccccccccccccccccccccccccccccccccccccccccccccccccccccccccccccccccccccccccccccccccccccccccccccccccccccccccccccccccccccccccccccccccccccccccccccccccccccccccccccccccccccccccccccccccccccccccccccccccccccccccccccccccccccccccccccccccccccccccccccccccccccccccccccccccccccccccccccccccccccccccccccccccccccccccccccccccccccccccccccccccccccccccccccccc" />
    <path
       id="path4477-7"
       style="fill:none;stroke:#0000ff;stroke-width:5.66929102;stroke-linecap:butt;stroke-linejoin:miter;stroke-miterlimit:2;stroke-dasharray:none;stroke-opacity:1"
       d="m 2895.8856,1834.3658 -3.0288,-11.8749 -1.8425,-6.9001 -1.8035,-6.8219 -1.7642,-6.8612 -1.8033,-6.9001 -1.8035,-6.8219 -1.921,-6.7435 -1.7642,-6.9002 -1.9603,-6.7827 -1.8425,-6.9395 -1.8426,-6.7435 -1.8818,-6.861 -1.8818,-6.8219 -1.921,-6.9003 -1.8818,-6.7825 -1.9212,-6.7436 -1.9993,-6.9001 -1.8818,-6.7827 -1.9995,-6.9004 -1.9209,-6.7826 -1.9995,-6.7826 -1.8818,-6.7435 -1.9995,-6.9003 -3.9987,-13.5653 -1.9995,-6.7435 -1.9994,-6.861 -2.0778,-6.8218 -1.9995,-6.7827 -2.0386,-6.7827 -2.078,-6.7042 -1.9993,-6.8219 -2.1171,-6.7827 -2.0777,-6.7825 -2.1171,-6.7435 -2.1172,-6.7827 -2.0777,-6.7825 -2.117,-6.7827 -2.0779,-6.7436 -2.117,-6.7826 -2.0779,-6.7042 -2.1954,-6.8219 -2.117,-6.7434 -2.1956,-6.7435 -2.1954,-6.7042 -2.1169,-6.7827 -2.1955,-6.7042 -2.1955,-6.7827 -2.1955,-6.665 -2.1954,-6.7434 -2.3131,-6.8218 -2.1954,-6.6651 -2.1954,-6.7043 -2.3131,-6.7042 -2.1954,-6.8219 -2.3131,-6.665 -2.2739,-6.7434 -2.1954,-6.665 -2.3131,-6.7436 -2.3131,-6.665 -2.2739,-6.7042 -2.313,-6.7042 -2.3914,-6.7044 -2.3131,-6.7042 -2.2739,-6.665 -2.4306,-6.7042 -2.2739,-6.7042 -2.4307,-6.6259 -2.3914,-6.665 -2.3915,-6.7434 -2.2739,-6.665 -2.4306,-6.5868 -2.3915,-6.7042 -2.5091,-6.7435 -2.3915,-6.5865 -2.3914,-6.7042 -2.5091,-6.5868 -2.3915,-6.665 -2.509,-6.665 -2.4308,-6.6651 -2.4698,-6.6257 -2.5091,-6.5082 -2.5092,-6.7827 -2.509,-6.6259 -2.4699,-6.5082 -2.509,-6.7825 -2.5092,-6.5474 -2.5874,-6.5867 -5.0182,-13.2516 -2.5875,-6.5868 -2.5875,-6.5473 -2.5091,-6.6651 -2.5875,-6.6259 -2.6267,-6.5474 -2.5875,-6.6257 -2.6267,-6.5867 -2.5875,-6.5865 -2.6658,-6.6259 -2.6267,-6.5474 -2.5875,-6.5082 -2.7052,-6.6651 -2.7051,-6.5474 -2.5874,-6.6258 -2.7052,-6.5083 -2.7051,-6.5865 -2.6659,-6.4691 -2.7443,-6.6259 -2.6658,-6.508 -2.7052,-6.6259 -2.7051,-6.4691 -2.7835,-6.5865 -5.4102,-13.0165 -2.8228,-6.5866 -2.7835,-6.5081 -2.7051,-6.5082 -2.7835,-6.4691 -2.8227,-6.5082 -2.7834,-6.5082 -2.8229,-6.5081 -2.7834,-6.5082 -2.9403,-6.4691 -2.7443,-6.50822 -2.8229,-6.5082 -2.9011,-6.5083 -2.7835,-6.508 -2.9011,-6.4691 -2.9011,-6.5082 -2.9011,-6.3906 -2.7835,-6.5082 -2.9012,-6.5083 -3.0187,-6.4297 -2.9012,-6.46908 -2.9011,-6.5082 -2.9011,-6.3906 -2.9796,-6.5082 -2.9012,-6.3906 -3.0186,-6.4297 -2.9011,-6.5083 -2.9796,-6.3905 -3.0188,-6.3906 -2.9794,-6.4691 -3.0188,-6.4297 -3.0188,-6.3906 -2.9796,-6.3906 -2.9794,-6.4299 -3.0188,-6.3513 -3.0971,-6.5082 -2.9796,-6.4299 -3.0971,-6.3121 -3.0188,-6.3514 -3.1364,-6.4297 -3.0579,-6.4299 -3.0188,-6.3906 -3.0971,-6.3906 -3.0971,-6.2729 -3.1755,-6.4298 -3.0973,-6.3514 -3.1362,-6.3514 -3.0973,-6.3906 -3.1756,-6.3123 -3.0971,-6.3905 -3.2147,-6.273 -3.0971,-6.4297 -3.2149,-6.2731 -3.1754,-6.3121 -3.2149,-6.4297 -3.2147,-6.2731 -3.1756,-6.3121 -3.2148,-6.2731 -3.1755,-6.3121 -3.2933,-6.3123 -3.2147,-6.3906 -3.2147,-6.312 -3.2932,-6.1946 -3.2931,-6.3123 -3.2147,-6.2729 -3.2933,-6.273 -3.3323,-6.3122 -3.2541,-6.3121 -3.3324,-6.2338 -3.293,-6.2729 -3.2933,-6.3123 -3.2932,-6.1946 -3.4107,-6.3121 -3.2932,-6.1554 -3.4109,-6.3513 -3.2539,-6.1946 -3.4107,-6.1946 -3.3323,-6.2729 -3.4109,-6.1946 -3.3715,-6.1946 -3.4109,-6.3121 -3.4107,-6.1946 -3.3717,-6.2338 -3.4892,-6.1946 -6.8216,-12.3891 -3.4891,-6.1946 -3.4501,-6.1944 -3.4498,-6.2338 -3.4109,-6.0769 -6.9784,-12.3893 -3.5283,-6.0769 -3.5285,-6.2338 -3.4499,-6.1944 -3.4893,-6.1163 -3.5284,-6.1553 -3.6068,-6.1554 -3.4892,-6.1553 -3.4892,-6.1161 -3.6068,-6.1162 -3.4892,-6.1946 -3.646,-6.1161 -1.3162,-2.41955 -99.1413,-0.0794 0.6082,0.61705 3.6069,6.1161 3.6853,6.1162 3.5675,6.0769 3.646,6.1161 3.5676,6.077 3.5284,6.1161 3.6068,6.077 3.5677,6.1161 3.6068,6.1946 3.5283,6.077 3.6069,6.1552 3.4892,6.1946 3.4891,6.0378 3.5677,6.273 3.5284,6.0378 3.4891,6.2337 3.5284,6.077 3.45,6.1944 3.5284,6.1946 3.4108,6.1555 3.4892,6.1553 3.4892,6.1946 3.4109,6.1944 3.4891,6.2338 10.2323,18.5838 3.45,6.1945 3.4501,6.2337 3.3715,6.1946 3.2932,6.3123 3.4107,6.1553 3.4109,6.2338 3.4107,6.2729 3.2932,6.2337 3.3715,6.1555 3.3324,6.3121 3.2932,6.3122 3.3716,6.1947 3.2932,6.2729 3.3324,6.2337 3.2932,6.3121 3.2932,6.2731 3.2931,6.3121 3.2147,6.273 3.2932,6.2337 3.2933,6.2731 3.2147,6.3514 3.2932,6.273 3.1756,6.2729 3.2147,6.3123 3.2148,6.3905 3.2147,6.3121 3.2932,6.3123 3.0971,6.2729 3.1756,6.4298 3.2147,6.2731 3.2148,6.3121 3.0581,6.3905 3.2147,6.3123 3.0971,6.4297 3.1756,6.273 3.1364,6.4299 3.0971,6.2337 3.0971,6.4298 3.1364,6.3906 3.0579,6.2729 3.0971,6.4299 3.1364,6.4297 3.058,6.3906 3.0187,6.3906 3.0971,6.3906 3.0973,6.4299 3.0187,6.3906 2.9795,6.3905 3.0188,6.4298 3.0971,6.3906 2.9796,6.3514 3.0187,6.4297 2.9012,6.5083 3.0186,6.3514 2.9796,6.4297 2.9796,6.5082 2.9403,6.39058 2.9794,6.5082 2.862,6.3906 2.9403,6.5083 3.0188,6.3905 2.8619,6.5083 2.9012,6.3905 5.8022,13.0165 2.9011,6.39062 2.8227,6.5474 2.9013,6.469 2.9011,6.5083 2.7835,6.5082 2.8226,6.5082 2.862,6.5082 2.7835,6.4298 5.6454,13.0163 2.7835,6.5083 2.8228,6.508 2.7835,6.4691 2.7835,6.5082 2.7051,6.6651 2.8227,6.5082 2.666,6.4689 2.8226,6.5867 2.7052,6.5083 2.6658,6.4689 2.7052,6.5867 2.705,6.5082 2.7052,6.6257 2.7051,6.5867 2.705,6.5083 2.7052,6.5865 5.2533,13.1341 2.6267,6.5866 2.7052,6.5867 2.6267,6.5081 5.175,13.1732 2.5875,6.6259 2.6267,6.5866 2.5875,6.6258 2.5875,6.5474 2.6267,6.6651 2.509,6.6258 2.5484,6.5474 2.509,6.5868 2.6267,6.7825 2.4699,6.5082 2.509,6.5867 2.5092,6.6651 5.0181,13.2516 2.5092,6.5865 2.4699,6.7044 2.509,6.6257 2.3914,6.665 2.5092,6.6651 2.3914,6.665 2.3915,6.5867 2.5091,6.7042 2.3915,6.5866 2.3914,6.7043 2.3916,6.7434 2.4305,6.5867 2.3916,6.6651 2.313,6.7042 2.3523,6.7433 2.4307,6.6651 2.313,6.6259 2.3914,6.665 2.3131,6.7434 2.2739,6.665 2.3131,6.7435 2.3131,6.6651 2.2737,6.7433 2.3131,6.6259 2.313,6.7827 2.274,6.7434 2.1954,6.7043 2.313,6.7042 2.1955,6.7042 2.313,6.7042 4.3909,13.5654 2.1956,6.6259 2.1954,6.8218 2.1954,6.7042 2.1955,6.6651 2.2345,6.8218 2.078,6.7042 2.1954,6.7827 2.1171,6.6651 2.1954,6.861 2.117,6.665 2.0779,6.8612 2.117,6.7825 2.0779,6.6259 4.2341,13.6437 2.0777,6.8219 2.0778,6.665 1.9995,6.7827 2.1171,6.861 1.9995,6.7827 2.1169,6.7827 3.9989,13.5652 1.9995,6.7044 1.9993,6.7825 1.9994,6.9003 1.9995,6.8219 1.9995,6.861 1.9994,6.7435 1.921,6.8219 1.9601,6.7827 1.9212,6.7825 1.8818,6.8612 1.9993,6.7826 1.9211,6.9002 1.8818,6.7827 1.921,6.8219 1.8818,6.861 1.8034,6.8611 1.8818,6.8219 1.921,6.9002 1.7643,6.7435 1.9601,6.7827 1.7642,6.9002 1.8035,6.7827 1.8033,6.9003 1.1779,4.5196 z"
       inkscape:connector-curvature="0"
       sodipodi:nodetypes="cccccccccccccccccccccccccccccccccccccccccccccccccccccccccccccccccccccccccccccccccccccccccccccccccccccccccccccccccccccccccccccccccccccccccccccccccccccccccccccccccccccccccccccccccccccccccccccccccccccccccccccccccccccccccccccccccccccccccccccccccccccccccccccccccccccccccccccccccccccccccccccccccccccccccccccccccccccccccccccccccccccccccccccccccccccccccccccccccccccccccccccccccccccccccccccccccccccccccccccccccccccccccccccccccccccccc" />
    <path
       id="path4477-0"
       style="fill:none;stroke:#0000ff;stroke-width:5.66929102;stroke-linecap:butt;stroke-linejoin:miter;stroke-miterlimit:2;stroke-dasharray:none;stroke-opacity:1"
       d="m 1371.9564,-661.32553 -9.9971,-9.9976 -5.0181,-4.9793 -5.1357,-5.0182 -5.0183,-4.9793 -5.0965,-4.9007 -4.9007,-5.0184 -5.1751,-4.8617 -5.0965,-5.0574 -5.018,-4.8616 -5.0183,-5.0185 -5.1749,-4.9006 -5.0967,-4.8616 -5.0573,-4.94 -5.1357,-5.0184 -5.0183,-4.8615 -5.2925,-4.9008 -4.9791,-4.8223 -5.1748,-4.9008 -5.2536,-4.9008 -5.018,-4.9008 -5.2928,-4.7831 -5.018,-4.9006 -5.2536,-4.9008 -5.1356,-4.7832 -5.2533,-4.8224 -5.0575,-4.9007 -5.2533,-4.8225 -10.3501,-9.5662 -5.2534,-4.8224 -5.2924,-4.7831 -5.136,-4.8223 -5.2533,-4.7832 -5.1751,-4.7831 -5.2533,-4.744 -10.5852,-9.5663 -5.1751,-4.7046 -5.2533,-4.8223 -5.2927,-4.6657 -5.2533,-4.7046 -5.2925,-4.8224 -5.2927,-4.7048 -5.2925,-4.6655 -5.3711,-4.7046 -5.2535,-4.7049 -5.3317,-4.7046 -5.4103,-4.5872 -5.2533,-4.7046 -5.3319,-4.7049 -5.3709,-4.7046 -5.3317,-4.5872 -5.2927,-4.7046 -5.371,-4.6264 -5.4495,-4.5872 -5.2533,-4.7046 -5.4495,-4.5872 -5.371,-4.6263 -5.4102,-4.5872 -5.3318,-4.587 -5.4102,-4.6263 -10.8205,-9.1742 -5.4101,-4.5087 -5.4103,-4.58717 -5.4102,-4.5087 -5.4886,-4.5871 -5.3318,-4.5087 -5.4494,-4.5872 -5.4887,-4.5087 -10.89876,-9.0173 -5.5278,-4.5872 -5.5278,-4.5087 -5.2926,-4.4693 -5.6062,-4.4304 -5.4496,-4.4695 -5.4886,-4.5087 -5.5669,-4.5087 -5.4496,-4.391 -5.5278,-4.5087 -5.4886,-4.3912 -5.6062,-4.5087 -5.5278,-4.391 -5.4886,-4.4304 -5.5672,-4.391 -5.4492,-4.3911 -5.6847,-4.391 -5.4494,-4.3912 -5.6064,-4.4302 -5.606,-4.3912 -5.5278,-4.391 -5.6064,-4.3127 -5.5278,-4.3911 -5.6455,-4.391 -5.6063,-4.2736 -5.5669,-4.3518 -5.6454,-4.3911 -5.5672,-4.2734 -5.6846,-4.3127 -5.6454,-4.3127 -5.6062,-4.3127 -5.5671,-4.2734 -5.6846,-4.2735 -5.6455,-4.3519 -5.6453,-4.2734 -5.7238,-4.195 -5.5672,-4.3128 -5.6846,-4.195 -5.7238,-4.3127 -5.6455,-4.1949 -5.7239,-4.1951 -5.6454,-4.2735 -5.7237,-4.2343 -17.054,-12.5852 -5.8415,-4.195 -5.6846,-4.1166 -5.6848,-4.1951 -5.8414,-4.195 -5.6846,-4.1166 -5.724,-4.1951 -5.7628,-4.0775 -5.6849,-4.1166 -5.8414,-4.1951 -5.8022,-4.1165 -5.7238,-4.0775 -5.7631,-4.1167 -5.8023,-4.1166 -5.8022,-4.0774 -5.7631,-4.1167 -5.8023,-3.9598 -5.8414,-4.1166 -5.8022,-4.1167 -5.8023,-3.9598 -5.7239,-4.1165 -5.9591,-4.0383 -5.8022,-3.9991 -5.7631,-4.0774 -5.9198,-3.9991 -5.8024,-3.9989 -5.9197,-3.9991 -5.8023,-3.9989 -5.8807,-3.9206 -5.8023,-3.9991 -5.8805,-3.9991 -5.9199,-3.9989 -5.8808,-3.8815 -5.9199,-3.9989 -5.8022,-3.8814 -5.9199,-3.9206 -5.8415,-3.8815 -5.9982,-3.9991 -5.959,-3.9206 -5.8808,-3.8813 -5.8805,-3.9207 -5.9199,-3.7636 -5.9984,-3.9208 -5.8806,-3.9206 -5.9199,-3.8813 -5.9982,-3.8031 -5.8808,-3.9206 -6.0375,-3.803 -5.9591,-3.8029 -5.8805,-3.8815 -6.0376,-3.8029 -5.959,-3.803 -6.0376,-3.8031 -5.9199,-3.8029 -5.9982,-3.803 -5.9982,-3.6853 -11.9966,-7.6061 -5.9982,-3.6853 -6.0767,-3.8029 -5.9984,-3.6855 -5.9982,-3.7246 -5.9983,-3.803 -6.0767,-3.6853 -6.0767,-3.7246 -5.959,-3.6461 -6.1161,-3.7247 -5.959,-3.6853 -6.155,-3.607 -6.0767,-3.7246 -5.9983,-3.6853 -6.0767,-3.607 -6.1158,-3.7246 -6.0767,-3.5677 -3.03165,-1.6741 -0.0695,-99.1171 4.15955,2.5799 6.1551,3.6461 6.0375,3.5679 6.1159,3.5678 6.1158,3.607 6.0767,3.6068 6.1552,3.607 6.0374,3.7246 6.116,3.5678 5.9982,3.6068 6.1159,3.6855 6.0767,3.7246 5.9982,3.6068 6.1161,3.6855 6.0767,3.6853 5.9982,3.7246 5.9982,3.6853 6.1159,3.6855 5.9983,3.7245 6.1159,3.6854 5.9982,3.803 5.9984,3.6855 5.9982,3.7244 5.9591,3.803 6.0375,3.8031 5.9983,3.6853 23.9932,15.212 6.0373,3.8029 5.8416,3.803 6.0374,3.8031 5.9591,3.8029 5.9199,3.8815 5.9983,3.8029 5.9198,3.8815 5.9984,3.8029 5.8805,3.9206 6.0376,3.8815 5.8414,3.8814 5.9591,3.803 5.8415,3.9206 5.9199,3.8814 5.9198,4.0381 5.9983,3.8814 5.8806,3.9206 5.8023,3.8815 5.9199,3.9991 5.8807,3.9206 5.9199,3.9989 5.9197,3.8814 5.7631,3.9991 5.9199,3.999 5.8415,3.999 5.8022,3.999 5.9199,3.9991 5.8023,3.9989 5.92,4.0382 5.8021,3.96 5.8023,4.1165 5.8022,3.9991 5.8808,3.999 5.8022,4.1167 5.8023,4.0774 5.8022,3.9989 5.8414,4.1168 5.7238,4.0774 5.8023,4.1166 5.6847,4.0774 5.8023,4.1167 5.8023,4.0774 5.8414,4.1166 5.6847,4.1167 5.8022,4.1951 5.6846,4.0774 5.8415,4.1166 11.3692,8.3901 5.8415,4.1166 22.7387,16.7802 5.8022,4.1951 5.6062,4.2342 5.6846,4.1559 5.7241,4.3519 5.7628,4.1559 5.6848,4.1949 5.6846,4.3127 5.567,4.1951 5.724,4.3127 5.5668,4.2734 5.7631,4.2344 5.5278,4.2733 5.7238,4.3128 5.5672,4.3127 5.6454,4.2734 5.6846,4.3127 5.6064,4.391 5.6454,4.3127 5.5669,4.3127 5.567,4.3911 5.6454,4.2733 5.5672,4.4304 5.6062,4.2734 5.4886,4.4304 5.6062,4.391 5.6456,4.4303 5.4493,4.3519 5.6454,4.3911 5.5672,4.4303 5.5278,4.3911 5.4494,4.391 5.6846,4.391 5.4102,4.5089 5.5278,4.391 5.5672,4.4302 5.41006,4.5089 5.6062,4.4693 5.5278,4.3912 5.371,4.5087 5.567,4.5087 5.4496,4.5087 5.4886,4.5086 5.567,4.4696 5.3319,4.5087 11.0556,9.0173 5.41,4.5872 5.332,4.5087 5.4886,4.5087 5.4495,4.5871 5.4102,4.587 5.4493,4.5087 5.371,4.6264 5.4495,4.5871 5.3709,4.5872 5.4495,4.5087 5.4101,4.587 5.4103,4.7048 5.2535,4.587 5.3709,4.6264 5.4885,4.5871 5.2927,4.5872 5.4101,4.7047 5.2535,4.6263 5.3712,4.6655 5.3316,4.70477 5.4495,4.6262 5.2925,4.7048 5.2536,4.6655 10.5852,9.4095 5.2532,4.7046 5.332,4.7049 5.3709,4.7046 5.2534,4.6655 5.2925,4.7048 5.2927,4.8223 5.175,4.7048 5.2926,4.7832 5.2533,4.7047 5.2927,4.7831 5.2534,4.7048 5.2926,4.8223 5.1358,4.7832 5.2925,4.7831 5.1358,4.8223 5.2926,4.7832 5.175,4.8223 5.2533,4.8224 10.2716,9.5663 5.1751,4.9007 5.2533,4.8224 5.1359,4.9007 5.1357,4.7831 5.1751,4.9008 5.1357,4.9008 5.1359,4.8223 5.1748,4.8616 5.175,4.9008 5.0966,4.94 5.0573,4.8615 15.4073,14.7023 5.0183,4.9006 5.1357,5.0185 5.0575,4.9008 5.0964,4.9791 5.0183,4.9008 5.1357,5.0184 5.0183,4.9007 5.0181,4.9793 5.1357,5.0182 9.9972,9.9976 5.0575,4.9008 5.0965,5.0967 4.3855,4.50393 -60.0153,59.98512 z"
       inkscape:connector-curvature="0"
       sodipodi:nodetypes="cccccccccccccccccccccccccccccccccccccccccccccccccccccccccccccccccccccccccccccccccccccccccccccccccccccccccccccccccccccccccccccccccccccccccccccccccccccccccccccccccccccccccccccccccccccccccccccccccccccccccccccccccccccccccccccccccccccccccccccccccccccccccccccccccccccccccccccccccccccccccccccccccccccccccccccccccccccccccccccccccccccccccccccccccccccccccccccccccccccccccccccccccccccccccc" />
    <path
       id="path4477-03"
       style="fill:none;stroke:#0000ff;stroke-width:5.66929102;stroke-linecap:butt;stroke-linejoin:miter;stroke-miterlimit:2;stroke-dasharray:none;stroke-opacity:1"
       d="m -429.25211,1145.377 -5.01805,-4.9399 -5.0182,-5.0183 -5.0574,-5.0184 -5.0181,-4.9008 -5.0967,-4.9792 -5.1357,-4.9399 -5.0574,-4.9791 -10.1931,-9.8016 -5.1359,-4.9008 -5.1749,-4.8223 -5.1359,-4.9008 -5.1748,-4.8615 -5.2143,-4.744 -5.0966,-4.8616 -5.2141,-4.9006 -5.1358,-4.7832 -5.3319,-4.8224 -5.2142,-4.6655 -5.1749,-4.8224 -5.3318,-4.8222 -5.2534,-4.6658 -5.2142,-4.7046 -5.3318,-4.7048 -5.2927,-4.7046 -5.2534,-4.7048 -5.4493,-4.7047 -5.2927,-4.6655 -5.3709,-4.6263 -5.3319,-4.7047 -5.371,-4.62641 -5.4102,-4.5872 -5.2926,-4.5871 -5.4102,-4.587 -5.5278,-4.6263 -5.371,-4.4696 -5.4101,-4.6263 -5.4887,-4.5087 -5.4103,-4.4694 -10.9771,-9.0174 -5.4104,-4.5086 -5.4885,-4.5087 -5.6062,-4.4696 -5.5279,-4.4304 -5.4886,-4.3518 -5.4887,-4.4302 -5.6063,-4.5087 -5.567,-4.2735 -5.4886,-4.4302 -5.6454,-4.3912 -5.6063,-4.2734 -5.567,-4.4304 -5.6063,-4.2734 -5.7237,-4.3127 -11.2124,-8.6252 -5.6848,-4.2736 -5.6847,-4.195 -5.6062,-4.2734 -5.6846,-4.2342 -5.7238,-4.1951 -5.6846,-4.1951 -5.724,-4.195 -5.8022,-4.2343 -5.6846,-4.0382 -5.8023,-4.2343 -5.6845,-4.1167 -11.6046,-8.1548 -5.6848,-4.1559 -5.8022,-4.0774 -5.8023,-4.1166 -5.8805,-3.9991 -5.8023,-3.9989 -5.8022,-4.0776 -5.8808,-3.999 -5.8023,-3.999 -5.959,-4.0382 -5.8022,-3.8813 -5.8808,-3.9991 -5.8806,-3.8815 -5.9199,-3.8813 -5.8806,-3.9207 -5.9983,-3.8813 -11.8399,-7.8412 -5.9981,-3.7638 -5.8807,-3.9206 -17.9949,-11.409 -5.9198,-3.803 -6.0766,-3.6854 -5.9984,-3.803 -5.9983,-3.7246 -5.9982,-3.7638 -6.116,-3.7245 -5.9982,-3.6854 -6.0768,-3.607 -6.0375,-3.6853 -6.0765,-3.7246 -6.11604,-3.607 -6.0767,-3.5677 -6.1158,-3.607 -6.1158,-3.5678 -6.0768,-3.6461 -6.1159,-3.607 -6.1943,-3.4893 -6.0766,-3.4894 -6.116,-3.6069 -6.1943,-3.4894 -6.1941,-3.5285 -6.1944,-3.3717 -6.1159,-3.4893 -12.3887,-6.9003 -6.2335,-3.411 -6.2727,-3.4109 -6.1943,-3.411 -6.1942,-3.2932 -6.312,-3.3718 -6.1944,-3.2932 -6.3118,-3.411 -6.1942,-3.33253 -6.2728,-3.2932 -6.312,-3.1757 -6.3118,-3.3326 -6.312,-3.2933 -6.2726,-3.1757 -6.312,-3.2149 -6.3119,-3.1757 -6.2727,-3.2149 -6.4296,-3.2148 -6.2727,-3.0974 -6.4294,-3.1758 -6.2729,-3.0972 -6.3903,-3.1365 -6.4295,-3.0581 -6.3119,-3.1364 -6.351,-3.0973 -6.4297,-2.9796 -6.3903,-3.0974 -6.3903,-3.0187 -6.508,-2.9798 -6.3903,-2.9797 -6.4294,-3.0187 -6.508,-2.9406 -6.3903,-2.9796 -6.508,-2.9012 -6.3903,-2.8621 -6.4688,-2.9404 -6.5079,-2.9013 -6.3903,-2.9012 -6.508,-2.7836 -6.5078,-2.9406 -13.0159,-5.5672 -6.4688,-2.7836 -6.6256,-2.7053 -6.4686,-2.8229 -6.508,-2.666 -6.6256,-2.8227 -6.5079,-2.6661 -6.5863,-2.7445 -6.4688,-2.6659 -6.6255,-2.5877 -6.5864,-2.7444 -6.5079,-2.5876 -6.5863,-2.6268 -6.6256,-2.5483 -6.5863,-2.6268 -6.6256,-2.5876 -6.5863,-2.5093 -6.5864,-2.5877 -6.7039,-2.5091 -6.5865,-2.5091 -6.6254,-2.5092 -6.7039,-2.5093 -6.5865,-2.3915 -6.6647,-2.4699 -6.6256,-2.4309 -13.4079,-4.7831 -6.5863,-2.4308 -6.704,-2.2739 -6.704,-2.3916 -6.7039,-2.3132 -6.7039,-2.274 -6.7041,-2.3523 -6.7039,-2.274 -6.6648,-2.2739 -6.7039,-2.2348 -6.8216,-2.2347 -13.408,-4.4695 -6.7822,-2.1955 -6.7041,-2.0779 -6.7822,-2.1955 -6.7041,-2.1172 -3.9615,-1.48315 -349.8606,0.1658 5.1377,0.92525 6.9001,1.2938 6.9784,1.4115 6.9392,1.2938 6.9783,1.3721 6.9001,1.4115 7.0175,1.5291 6.8607,1.4113 6.9001,1.4899 7.0175,1.3722 6.9001,1.5291 6.8999,1.4898 6.9,1.5682 7.0175,1.529 6.9001,1.5683 6.9,1.6074 6.8608,1.6074 6.9392,1.6075 6.8999,1.6074 6.8608,1.5683 6.9393,1.7251 6.7822,1.725 13.8001,3.3717 6.8999,1.7251 6.7824,1.7643 6.9,1.8035 6.8999,1.7251 6.8216,1.8034 6.9,1.8819 6.7824,1.8036 6.8216,1.8034 6.8607,1.8819 6.8216,1.9211 6.7824,1.8819 6.9392,1.8818 6.7822,2.0388 6.7825,1.8818 6.8215,2.0388 6.7824,1.9995 6.8216,1.9995 6.7824,1.9996 6.8216,1.9994 6.7824,2.078 6.7039,1.9996 6.7824,2.0778 6.8216,2.117 6.7039,2.1957 6.7824,2.0779 6.7039,2.1172 6.7824,2.2347 6.7039,2.1563 6.8216,2.1955 6.7039,2.1956 6.7041,2.3523 6.7039,2.1955 6.7824,2.274 6.7039,2.3132 6.704,2.274 6.6647,2.3132 6.704,2.3131 6.6256,2.3915 6.7039,2.3917 6.6647,2.3131 6.7433,2.3915 6.5863,2.5092 6.7039,2.3916 6.5864,2.4308 6.7039,2.47 6.5865,2.5091 6.6254,2.5092 6.6648,2.47 6.6256,2.5093 6.5863,2.5876 6.5864,2.6268 6.6254,2.5091 13.1727,5.1753 6.6256,2.7051 6.4688,2.6268 6.6255,2.6661 6.5864,2.7051 6.508,2.7053 6.5863,2.6661 6.5079,2.7443 6.508,2.7052 6.5862,2.823 6.508,2.7444 6.508,2.8228 13.0159,5.5672 6.4686,2.8229 13.0159,5.8025 6.3903,2.9012 6.508,2.8621 6.4688,2.9404 6.4686,2.86213 6.3512,3.0581 6.5079,2.8619 6.3903,3.0189 6.4297,2.9798 6.3903,3.0188 6.3903,3.0973 6.3903,2.9797 6.3903,3.1364 6.3903,3.0974 6.4295,3.0972 6.3903,3.0581 6.2728,3.1365 6.4295,3.0972 6.3118,3.2149 6.3905,3.1757 6.3119,3.0972 6.2726,3.2934 12.6238,6.4299 6.2729,3.2932 6.3118,3.2149 6.312,3.2542 6.2728,3.2933 6.2334,3.3325 6.2726,3.2932 6.1944,3.411 6.312,3.2934 6.1942,3.4108 6.2335,3.411 6.1943,3.3717 6.2728,3.3717 6.0766,3.5285 6.2335,3.411 6.1943,3.5285 6.1944,3.4502 6.1942,3.5285 6.116,3.4501 6.1943,3.5287 6.1157,3.5285 6.0767,3.6069 6.1161,3.5677 6.1943,3.607 6.0766,3.6069 6.1158,3.5679 5.9984,3.6069 6.116,3.7245 6.1157,3.5679 5.9591,3.7246 6.116,3.6853 5.9982,3.7246 6.0767,3.6853 5.9982,3.803 5.99824,3.6854 6.0375,3.803 5.9983,3.8029 5.9592,3.803 5.9197,3.8031 5.9984,3.803 6.0374,3.8029 5.8807,3.8815 5.9199,3.9206 5.9591,3.8029 5.9199,3.8814 5.8805,3.9991 5.92,3.8813 5.8807,3.9207 5.8805,4.0382 5.8024,3.9599 5.9198,3.8813 5.8022,3.9991 5.92,4.1559 5.8022,3.9989 5.7631,3.9598 5.8023,4.1167 5.8022,4.0775 5.8023,3.999 5.8023,4.1558 5.8022,4.195 5.6846,4.0774 5.8023,4.1168 5.6846,4.195 5.8022,4.1951 5.724,4.1557 5.7238,4.2342 11.3693,8.3902 5.6455,4.195 11.3692,8.6255 5.567,4.195 5.6062,4.2734 5.724,4.391 5.5669,4.3126 5.6455,4.3128 5.5669,4.391 5.6063,4.3127 5.5279,4.3911 5.5671,4.4303 5.4885,4.3519 5.6062,4.5086 5.5279,4.43031 5.4886,4.3912 5.4886,4.4695 5.5279,4.5478 10.9773,8.9391 5.4101,4.5087 5.4887,4.5086 5.4101,4.6264 5.3711,4.5087 5.5277,4.5477 5.4104,4.6656 5.2925,4.548 5.4103,4.6655 5.371,4.5479 5.4102,4.5871 5.2925,4.7047 5.2927,4.744 5.4101,4.5478 5.2927,4.7048 5.3319,4.744 5.2533,4.6655 5.2142,4.8223 5.2926,4.7047 5.3709,4.7831 5.1751,4.7049 5.175,4.7831 5.2925,4.7831 5.2142,4.8224 5.1751,4.7831 5.1356,4.94 5.1751,4.8223 5.175,4.8616 5.0966,4.9008 5.2142,4.8223 5.1357,4.9008 5.0574,4.9008 5.1357,4.9791 5.0967,4.8616 5.0574,4.9007 5.0181,5.0184 5.1358,5.0184 9.9971,9.9976 3.5203,3.477 60.10398,-60.0994 z"
       inkscape:connector-curvature="0"
       sodipodi:nodetypes="cccccccccccccccccccccccccccccccccccccccccccccccccccccccccccccccccccccccccccccccccccccccccccccccccccccccccccccccccccccccccccccccccccccccccccccccccccccccccccccccccccccccccccccccccccccccccccccccccccccccccccccccccccccccccccccccccccccccccccccccccccccccccccccccccccccccccccccccccccccccccccccccccccccccccccccccccccccccccccccccccccccccccccccccccccccccccccccccccccccccccccccccccccccccccccccccccccccccccccccccccccccccccccccccccccccccccccc" />
    <path
       id="path13789"
       style="fill:none;stroke:#0000ff;stroke-width:5.66929102;stroke-linecap:butt;stroke-linejoin:miter;stroke-miterlimit:2;stroke-dasharray:none;stroke-opacity:1"
       d="m 303.20224,45.212806 -4.73147,-4.093667 -5.371,-4.704658 -5.29268,-4.70482 -5.29252,-4.626333 -5.41032,-4.704658 -5.33168,-4.587172 -5.371,-4.665495 -5.41033,-4.6263335 -5.29252,-4.5870088 -5.41032,-4.62633345 -5.371,-4.58717125 -5.44933,-4.5871713 -5.371,-4.6261707 -5.371,-4.587172 -5.41032,-4.508684 -5.52781,-4.587171 -5.371,-4.469523 -5.48865,-4.626333 -5.41016,-4.508685 -5.52781,-4.508684 -1.05847,-0.901704 -36.14661,43.7148693 2.39156,1.999382 5.5278,4.5086845 5.41017,4.508847 5.48864,4.5478462 5.41016,4.508685 5.41033,4.626333 5.5278,4.508685 5.33184,4.587171 5.44933,4.587009 5.371,4.626333 5.41032,4.587172 5.29252,4.626333 5.41016,4.587009 5.41033,4.70482 5.29252,4.587009 5.41016,4.665658 5.29268,4.626333 5.371,4.704658 5.29268,4.743982 5.33168,4.547847 10.5852,9.409478 5.29268,4.783148 5.29252,4.70465 5.33184,4.74399 5.17504,4.66549 5.33184,4.82247 2.56339,2.15757 z"
       inkscape:connector-curvature="0"
       sodipodi:nodetypes="ccccccccccccccccccccccccccccccccccccccccccccccccccc" />
    <path
       id="path4477-6"
       style="fill:none;stroke:#0000ff;stroke-width:5.66929102;stroke-linecap:butt;stroke-linejoin:miter;stroke-miterlimit:2;stroke-dasharray:none;stroke-opacity:1"
       d="m -1114.4212,-2175.794 5.4107,1.4902 6.8608,1.6859 6.8215,1.8035 6.9001,1.8035 6.8215,1.9211 6.8999,1.7643 6.7824,1.8034 6.9001,1.9211 6.8216,1.8035 6.7822,1.8819 6.9,1.8035 6.7824,1.9211 6.8216,1.8819 6.8999,1.9211 13.5648,3.7637 6.82175,1.9211 6.89996,1.9996 6.78223,1.8819 6.8218,1.921 6.8215,1.9996 6.7822,1.9995 6.8216,1.8819 6.7433,1.9995 6.8216,1.9995 6.7824,1.9995 6.8216,1.9995 6.7824,1.9995 6.8215,1.9995 6.8216,2.1172 6.743,1.9995 6.861,2.0779 6.743,1.9995 6.7433,2.1171 6.7822,2.1171 6.7824,1.9996 6.8216,2.0779 6.6648,2.1171 6.8215,2.0779 6.7039,2.1956 6.8216,2.1171 6.7824,2.0779 6.7039,2.2348 6.8218,2.0779 6.6647,2.1956 6.8216,2.1171 6.6647,2.1955 6.8216,2.1955 6.7039,2.1956 6.704,2.2347 6.7824,2.1564 6.7039,2.2347 6.7039,2.274 6.7041,2.1955 6.7822,2.3132 6.7432,2.1955 6.6648,2.3132 6.704,2.1955 6.7039,2.3132 6.6647,2.2739 6.7433,2.3132 6.7039,2.3132 6.66471,2.2739 6.70392,2.3132 6.70392,2.3915 6.70416,2.3132 6.70392,2.3916 6.70392,2.3131 6.70392,2.3916 6.6256,2.3916 6.66473,2.3131 6.70392,2.3916 6.5864,2.3916 6.704,2.3915 6.70392,2.5092 6.6256,2.3916 6.66472,2.4308 6.6256,2.47 6.70392,2.3915 6.54712,2.5092 6.74328,2.3916 6.58624,2.5092 6.70392,2.5092 6.6256,2.5092 6.58632,2.47 6.70409,2.5091 13.17248,5.0184 6.58648,2.5876 13.25104,5.0184 6.66472,2.5876 6.6256,2.5876 6.54712,2.5092 6.6648,2.5876 6.54712,2.6268 6.6256,2.5876 6.50792,2.6268 6.58632,2.5876 6.5864,2.7052 6.62544,2.5876 6.58649,2.5876 6.46864,2.7053 6.66472,2.7052 6.54728,2.5876 6.50784,2.7052 6.5864,2.7052 6.50792,2.7052 6.62544,2.7053 6.508,2.7052 6.5864,2.666 6.508,2.7052 6.58624,2.8229 6.4688,2.7052 6.508,2.666 6.58624,2.8228 6.508,2.7837 6.50793,2.7052 6.50792,2.8228 6.508,2.7837 6.62544,2.7836 6.50792,2.8228 6.508,2.7837 6.4688,2.9012 6.50792,2.8229 6.50784,2.7836 6.35112,2.9012 6.50792,2.7837 6.508,2.9012 6.4688,2.9013 6.50792,2.9012 6.42952,2.9013 6.4688,2.9012 6.50777,2.9013 6.4296,2.9012 6.508,2.9013 6.39032,2.9012 6.46864,3.0189 6.4296,2.9012 6.46864,2.9797 6.39032,2.9013 6.4296,3.0188 6.508,2.9797 6.39032,3.0189 6.39032,2.9796 6.42944,3.0189 6.39032,2.9796 6.4688,3.0189 6.39032,2.9797 6.42944,3.0973 6.39033,3.0188 6.4296,3.0973 6.272717,2.9797 12.78064,6.1945 6.42944,3.1365 6.39032,3.0973 6.312,3.0973 6.39032,3.0973 6.42945,3.0973 6.2728,3.0972 6.390317,3.0973 6.31184,3.2149 6.39032,3.0973 6.2728,3.1757 6.42952,3.2149 6.312,3.0973 6.2726395,3.1757 6.3903195,3.2148 6.3118394,3.215 6.3120006,3.1756 12.623761,6.4299 6.39032,3.2933 6.312,3.1757 6.27273,3.3325 6.31176,3.2149 6.1552,3.2541 6.3512,3.2541 6.27264,3.2541 6.312,3.2933 6.31184,3.3325 6.19432,3.2933 6.27264,3.2933 6.312006,3.2933 6.19424,3.411 6.2728,3.2933 6.23352,3.2933 6.27264,3.4109 6.23352,3.2934 6.27264,3.4108 6.23352,3.411 6.1944,3.3717 6.23344,3.2933 6.27272,3.4109 6.19432,3.411 6.19432,3.4893 12.38856,6.8219 6.23352,3.3717 6.19433,3.4893 6.19424,3.411 6.15513,3.5285 6.15504,3.4893 6.1552,3.3719 6.19432,3.5285 6.19424,3.4893 6.11584,3.4893 6.19432,3.5285 6.11584,3.4893 6.23352,3.4895 6.07672,3.6069 6.19432,3.4893 6.07672,3.607 6.11592,3.4893 6.19432,3.607 6.11584,3.4893 2.30289,1.2561 -0.0866,99.011 -1.94181,-1.2717 -6.07672,-3.6853 -6.11584,-3.607 -6.07672,-3.6069 -6.11584,-3.607 -6.11608,-3.5677 -6.07648,-3.607 -6.11608,-3.4893 -6.07672,-3.607 -6.19416,-3.6069 -6.11584,-3.4894 -6.116,-3.607 -6.19424,-3.5285 -6.07664,-3.4894 -6.23352,-3.5677 -6.07673,-3.5285 -6.19432,-3.4895 -6.07673,-3.4892 -6.23352,-3.5286 -6.19432,-3.3717 -6.23352,-3.5286 -6.03744,-3.4894 -6.23344,-3.3717 -6.1944,-3.5285 -6.23352,-3.411 -6.15496,-3.4501 -6.1944,-3.45 -6.19432,-3.3719 -6.23352,-3.4108 -6.19432,-3.411 -6.27272,-3.3717 -6.23344,-3.4109 -6.19424,-3.411 -6.312003,-3.4108 -6.154963,-3.2542 -6.1944,-3.4502 -6.35112,-3.254 -6.15504,-3.411 -6.35112,-3.3325 -6.1552,-3.2932 -12.62384,-6.5867 -6.19433,-3.2934 -6.31184,-3.2932 -6.27264,-3.2934 -6.312,-3.3325 -6.311841,-3.1757 -6.27288,-3.2933 -6.31176,-3.2149 -6.3119995,-3.2932 -6.27272,-3.1757 -6.3119195,-3.2151 -6.31184,-3.3323 -6.312,-3.1757 -6.27272,-3.2151 -6.42944,-3.2148 -6.272637,-3.0972 -6.27288,-3.1758 -6.42945,-3.2149 -6.312,-3.1757 -6.39032,-3.0972 -6.31184,-3.1365 -6.39032,-3.1757 -6.272799,-3.0973 -6.42944,-3.0973 -6.390318,-3.0973 -6.27272,-3.0972 -6.4296,-3.1365 -6.39033,-3.0973 -6.39032,-3.0581 -6.42944,-3.0973 -6.27272,-3.0188 -6.39032,-3.0973 -6.4296,-3.0189 -6.39032,-3.0581 -6.50792,-3.0188 -6.39032,-3.0189 -6.42952,-2.9797 -6.35112,-3.0188 -6.42944,-3.0189 -6.39032,-2.9797 -6.508,-2.9796 -6.35112,-3.0189 -6.42952,-2.9012 -6.50793,-3.0189 -6.4296,-2.9013 -6.46864,-2.9796 -6.42968,-2.9013 -6.50792,-2.9012 -6.46864,-2.9013 -6.39032,-2.9012 -13.01592,-5.8025 -6.39032,-2.9013 -6.4688,-2.9012 -6.50792,-2.7837 -6.508,-2.9012 -6.50776,-2.7836 -6.50792,-2.9013 -6.4688,-2.8228 -13.01593,-5.5673 -13.01576,-5.6457 -6.4688,-2.7836 -6.508,-2.7836 -6.50792,-2.8229 -6.6256,-2.7052 -6.46864,-2.7836 -6.50792,-2.7052 -6.58632,-2.7837 -13.01592,-5.4104 -6.6256,-2.7052 -6.50792,-2.7053 -6.58632,-2.7052 -6.58641,-2.666 -6.508,-2.7444 -6.58624,-2.666 -6.58632,-2.6269 -6.50792,-2.7052 -6.5864,-2.5876 -6.62544,-2.7052 -6.58648,-2.5484 -6.4688,-2.6268 -6.66456,-2.5876 -6.54728,-2.6268 -6.62544,-2.5876 -6.58648,-2.5876 -6.62544,-2.6268 -6.5864,-2.5876 -6.58632,-2.5092 -6.62561,-2.5876 -6.66472,-2.5092 -6.6256,-2.5092 -6.58632,-2.5876 -6.6256,-2.5092 -6.58624,-2.5092 -6.70408,-2.47 -13.17256,-5.0183 -6.74328,-2.3916 -6.58624,-2.5092 -6.70408,-2.5092 -6.58632,-2.3916 -6.70392,-2.5091 -6.5864,-2.3916 -6.66472,-2.3916 -6.74313,-2.3916 -6.58648,-2.4307 -13.40784,-4.7832 -6.58624,-2.3916 -6.70408,-2.3915 -6.70392,-2.3132 -6.70389,-2.3916 -6.7039,-2.3131 -6.7041,-2.3916 -6.6648,-2.3131 -6.7431,-2.274 -6.5864,-2.3131 -6.8216,-2.3132 -6.6648,-2.274 -13.4078,-4.6263 -6.7039,-2.2739 -6.7041,-2.2348 -6.7039,-2.2739 -6.6648,-2.1956 -6.8216,-2.2347 -6.7039,-2.274 -6.7039,-2.1955 -6.7824,-2.1956 -6.7039,-2.2347 -6.7041,-2.1956 -6.8216,-2.1955 -6.7039,-2.0779 -6.7431,-2.1956 -6.7432,-2.2347 -6.7824,-2.0779 -6.704,-2.0779 -6.8215,-2.2348 -6.7824,-2.0779 -6.7039,-2.1171 -6.7824,-2.078 -6.8216,-2.1171 -6.7039,-2.0779 -6.7824,-2.1172 -6.8215,-1.9995 -6.7825,-2.1171 -6.7823,-2.0779 -6.704,-1.9995 -6.8216,-1.9995 -6.7824,-2.1172 -6.7822,-1.9995 -6.8216,-1.9995 -6.7824,-1.9995 -6.8215,-1.9995 -6.7825,-1.9995 -6.8215,-1.8819 -6.78243,-1.9995 -6.82171,-1.9211 -6.9,-1.9995 -6.7823,-1.8819 -6.8216,-1.9995 -6.7824,-1.9211 -6.7824,-1.8819 -6.9392,-1.9211 -6.7431,-1.8819 -6.8608,-1.9211 -6.8608,-1.7643 -6.7824,-1.9211 -6.8215,-1.8819 -6.8999,-1.8035 -6.7824,-1.9211 -6.9392,-1.8034 -6.7824,-1.8035 -8.2962,-2.3569 z"
       inkscape:connector-curvature="0"
       sodipodi:nodetypes="ccccccccccccccccccccccccccccccccccccccccccccccccccccccccccccccccccccccccccccccccccccccccccccccccccccccccccccccccccccccccccccccccccccccccccccccccccccccccccccccccccccccccccccccccccccccccccccccccccccccccccccccccccccccccccccccccccccccccccccccccccccccccccccccccccccccccccccccccccccccccccccccccccccccccccccccccccccccccccccccccccccccccccccccccccccccccccccccccccccccccccccccccccccccccccccccccccccccccccccccccccccccccccccccccccccccccc" />
    <path
       id="path4477-0-2"
       style="fill:none;stroke:#0000ff;stroke-width:5.66929102;stroke-linecap:butt;stroke-linejoin:miter;stroke-miterlimit:2;stroke-dasharray:none;stroke-opacity:1"
       d="m 1436.9464,-716.71824 5.4605,5.60081 5.018,4.9793 4.979,5.0574 5.0182,5.0577 4.979,4.9792 4.9397,5.0575 4.9791,5.0576 5.0181,5.0969 4.8613,5.0575 4.979,5.0576 4.9397,5.0967 5.0968,5.097 4.9004,5.0183 4.8613,5.0575 4.9007,5.1362 4.8613,5.175 4.8613,5.0968 5.0182,5.1361 4.8613,5.0968 4.8612,5.2144 4.9007,5.0576 4.8614,5.1359 4.8612,5.1753 4.9007,5.0967 4.7437,5.2144 4.979,5.1753 4.7829,5.2144 4.8615,5.0968 4.8612,5.2144 4.7437,5.1753 4.7439,5.2142 4.8613,5.2144 4.7437,5.2929 4.9007,5.1753 4.7044,5.2144 4.9005,5.2144 4.7046,5.2928 4.7829,5.1752 4.7045,5.332 4.7439,5.1752 4.7436,5.332 4.7437,5.1752 4.7439,5.332 4.7436,5.2537 4.7437,5.3319 4.7047,5.2929 4.6261,5.2929 9.4875,10.5856 4.7437,5.3319 4.5868,5.293 4.7439,5.3712 4.6261,5.2927 4.7044,5.3321 4.6262,5.4104 4.7046,5.2929 4.5084,5.4104 4.5868,5.2929 4.7439,5.4104 4.6261,5.3712 9.1738,10.8209 4.6262,5.3712 4.587,5.2928 4.6261,5.528 4.5868,5.3712 4.4693,5.4106 4.5869,5.4104 4.6263,5.4104 4.4692,5.4889 4.4692,5.4105 4.6261,5.4104 4.4695,5.4889 4.5477,5.4104 4.4691,5.4889 4.6263,5.4888 4.4693,5.4889 4.5869,5.4104 4.3518,5.4888 4.4693,5.4889 4.4692,5.5281 4.5869,5.4889 4.3518,5.528 8.9386,10.9778 4.4694,5.6063 4.43,5.4889 4.3517,5.4888 4.4693,5.6066 4.3516,5.528 4.4694,5.5672 4.3126,5.4889 4.4691,5.6457 4.3517,5.5672 4.3516,5.528 4.4695,5.6065 4.3125,5.6066 4.3124,5.5672 8.7035,11.213 4.3125,5.6064 4.3908,5.5674 4.2732,5.6063 4.3126,5.60656 4.4302,5.6848 4.2732,5.60656 4.2734,5.724 4.1949,5.56736 4.3517,5.64568 4.3123,5.68488 4.1557,5.6848 4.3126,5.60657 4.1949,5.6848 4.3123,5.68488 8.3898,11.448163 4.3124,5.68488 8.3899,11.36984 8.3898,11.448163 4.0772,5.68488 4.2341,5.68488 4.1949,5.80248 4.1948,5.6848 4.0381,5.72424 4.2732,5.80248 4.1165,5.6848 4.0772,5.84168 4.195,5.80249 4.0773,5.6457595 4.0381,5.84176 4.0772,5.80256 4.234,5.7631204 4.0772,5.7241601 3.999,5.763359 4.1164,5.80248 4.0773,5.84168 3.9989,5.880801 4.1164,5.80248 3.8812,5.80272 4.1948,5.80248 3.9206,5.80248 4.0772,5.8808 3.9989,5.80256 4.038,5.88096 3.9989,5.80248 3.9596,5.92017 3.9988,5.80248 3.9596,5.920004 4.0772,5.88096 3.8814,5.80256 3.9989,5.88096 3.8813,5.92 3.9988,5.92007 3.9204,5.84168 3.8812,5.95952 3.9204,5.8808 3.9991,5.88096 3.9204,5.92016 3.8419,5.8808 3.8028,5.99848 3.9205,5.92016 3.9204,5.88096 3.8813,6.03784 3.8028,5.84161 3.9204,6.03768 3.803,5.92016 3.8028,5.95928 3.8813,5.92016 15.2113,23.99416 3.8028,5.92016 3.7636,5.95936 3.7243,6.0376 3.7637,5.95928 3.8029,6.03784 3.7243,6.07696 3.803,5.99848 3.6851,6.03776 3.7245,5.95928 3.8028,6.15553 3.6852,5.95928 3.7244,5.99848 3.6851,6.07696 3.6854,5.99848 3.6068,6.11608 3.6852,5.99864 3.7244,6.11616 3.6069,6.11608 3.6851,5.95928 3.6068,6.11616 3.6852,6.07696 7.2137,12.2324 3.5676,6.11608 3.6069,6.11616 3.6068,6.03776 3.6067,6.11617 3.6068,6.07696 1.5572,2.66952 0.2075,0.0794 -99.1365,0.0614 -4.8342,-8.57368 -3.6852,-5.95929 -3.6068,-6.15528 -3.6851,-6.11632 -3.6462,-5.99848 -3.646,-6.07696 -3.7243,-5.99848 -3.6853,-6.11608 -3.7243,-5.99864 -3.6853,-6.07696 -7.3705,-11.99696 -3.8028,-6.11624 -3.7246,-5.99848 -3.8028,-5.99848 -3.685,-5.99864 -3.803,-5.99848 -3.7244,-5.99864 -3.8028,-5.99848 -3.7636,-6.03777 -3.842,-5.99848 -3.7637,-5.95928 -3.8812,-5.99848 -3.7243,-5.88104 -3.803,-5.9984 -3.8811,-6.03784 -3.8031,-5.88096 -3.9204,-6.03768 -3.8028,-5.88096 -3.9204,-5.99848 -3.7636,-5.88096 -3.9204,-5.92 -3.8813,-5.99864 -3.9204,-5.92016 -3.9596,-5.8808 -3.8028,-5.92016 -3.9599,-5.84161 -3.8418,-5.95936 -3.999,-5.88096 -3.9596,-5.88096 -3.9989,-5.92 -3.8811,-5.88096 -3.9989,-5.80256 -3.9204,-5.88096 -4.0381,-5.92 -3.9206,-5.84176 -7.9976,-11.76184 -7.9976,-11.60495 -4.0773,-5.88088 -3.9204,-5.80248 -4.1949,-5.802484 -3.9204,-5.92016 -4.0773,-5.76337 -3.9989,-5.80248 -4.1164,-5.84168 -4.1949,-5.80248 -4.0772,-5.76336 -3.9205,-5.80248 -4.1949,-5.72416 -4.0774,-5.80248 -4.1556,-5.80248 -4.0772,-5.802561 -4.1165,-5.6848 -4.0773,-5.80248 -4.2732,-5.72408 -4.0772,-5.763279 -4.1558,-5.6848805 -4.1164,-5.84183992 -8.3897,-11.36967958 -4.1949,-5.72417 -4.3126,-5.68488 -4.0772,-5.80248 -4.1949,-5.6848 -4.1949,-5.72408 -4.3126,-5.60648 -4.1948,-5.68488 -4.234,-5.68496 -4.1557,-5.724 -4.2341,-5.68488 -4.3126,-5.606563 -4.3516,-5.724 -4.1556,-5.60648 -4.3517,-5.68488 -4.1949,-5.56736 -4.3516,-5.724003 -8.6251,-11.21304 -4.2732,-5.68488 -4.2735,-5.60633 -4.4692,-5.56736 -4.2341,-5.64576 -4.43,-5.5672 -4.3517,-5.60648 -4.3518,-5.5672 -4.3125,-5.528 -4.3516,-5.60656 -4.4303,-5.60656 -4.469,-5.60636 -4.3518,-5.4888 -4.3517,-5.6066 -4.4301,-5.4889 -4.3518,-5.6063 -8.9386,-10.9778 -4.4691,-5.6065 -4.3517,-5.528 -13.408,-16.4665 -4.4695,-5.5282 -4.4692,-5.4887 -4.5476,-5.5282 -4.3909,-5.4495 -4.5479,-5.4104 -4.5084,-5.5283 -4.5868,-5.4886 -4.4694,-5.4106 -4.4694,-5.4889 -4.626,-5.4104 -4.4694,-5.4104 -4.5868,-5.4889 -4.4694,-5.3712 -4.6261,-5.4105 -4.5869,-5.4104 -4.587,-5.3712 -4.626,-5.5281 -4.587,-5.3712 -4.587,-5.2929 -4.626,-5.4496 -4.5869,-5.3712 -4.5085,-5.4105 -4.7046,-5.4104 -4.6262,-5.2928 -4.5868,-5.4105 -4.7438,-5.2536 -4.5869,-5.4104 -4.7437,-5.332 -4.6262,-5.2928 -4.5869,-5.4105 -4.7439,-5.2536 -4.7436,-5.3321 -4.6261,-5.2927 -4.7437,-5.2929 -4.7046,-5.3321 -4.6261,-5.2927 -4.8613,-5.2536 -4.6263,-5.2144 -4.7436,-5.3321 -4.8613,-5.2928 -4.7439,-5.1752 -4.7044,-5.332 -4.7829,-5.2144 -4.7047,-5.2929 -4.9004,-5.1751 -4.7047,-5.2929 -4.8613,-5.2144 -4.626,-5.2145 -4.9007,-5.1751 -4.8613,-5.2144 -4.7045,-5.2144 -4.9007,-5.1752 -4.7436,-5.2145 -4.9005,-5.1752 -4.8615,-5.1359 -9.7226,-10.3504 -4.8614,-5.1361 -4.9004,-5.1752 -4.7438,-5.0968 -4.979,-5.0968 -4.9005,-5.2144 -4.9007,-5.0967 -4.8612,-5.0968 -4.8614,-5.1361 -4.9006,-5.0968 -4.9789,-5.0576 -4.8615,-5.1359 -10.0362,-10.1936 -4.9006,-4.9792 -4.9789,-5.0968 -4.8615,-5.0968 -5.0181,-5.0184 -5.0183,-5.0968 -5.018,-5.0183 -4.8614,-4.9793 -5.0183,-5.0967 -10.1424,-10.24346 z"
       inkscape:connector-curvature="0"
       sodipodi:nodetypes="ccccccccccccccccccccccccccccccccccccccccccccccccccccccccccccccccccccccccccccccccccccccccccccccccccccccccccccccccccccccccccccccccccccccccccccccccccccccccccccccccccccccccccccccccccccccccccccccccccccccccccccccccccccccccccccccccccccccccccccccccccccccccccccccccccccccccccccccccccccccccccccccccccccccccccccccccccccccccccccccccccccccccccccccccccccccccccccccccccccccccccccccccccccccccc" />
    <path
       id="path4477-7-5"
       style="fill:none;stroke:#0000ff;stroke-width:5.66929102;stroke-linecap:butt;stroke-linejoin:miter;stroke-miterlimit:2;stroke-dasharray:none;stroke-opacity:1"
       d="m 3075.0596,3237.1985 -0.022,-7.563 0,-12.4668 -0.117,-7.1352 0,-14.0749 -0.078,-7.0963 -0.117,-7.0964 -0.078,-7.0963 0,-7.0961 -0.2352,-14.1926 -0.078,-7.018 -0.1959,-7.0963 -0.2353,-14.1927 -0.196,-7.0963 -0.078,-7.0961 -0.1959,-7.0963 -0.2353,-7.018 -0.1577,-7.0963 -0.3919,-14.1926 -0.2353,-7.0964 -0.1959,-7.0963 -0.1962,-7.0178 -0.3136,-7.0963 -0.1959,-7.0963 -0.2745,-7.0963 -0.1961,-7.0963 -0.3528,-7.0964 -0.2744,-7.0178 -0.2744,-7.0963 -0.6272,-14.1926 -0.2744,-7.0963 -0.3138,-7.0178 -0.392,-7.0964 -0.3137,-7.0963 -0.392,-7.0963 -0.3137,-6.9786 -0.392,-7.0964 -0.4312,-7.1354 -0.3528,-7.0963 -0.4312,-7.0963 -0.3528,-6.9787 -0.4312,-7.1356 -0.3922,-7.0964 -0.5098,-6.9786 -0.3919,-7.1355 -0.5097,-7.0571 -0.392,-7.0964 -0.5096,-7.0178 -0.4704,-7.0963 -0.5099,-7.0963 -0.5489,-7.0178 -0.4704,-7.0963 -0.5095,-7.0963 -0.4705,-6.9787 -0.5096,-7.1355 -0.5882,-7.0963 -0.5097,-6.9788 -0.588,-7.0962 -0.6273,-7.1356 -0.4704,-7.0178 -0.6274,-7.0572 -0.588,-7.0963 -0.5881,-7.0178 -0.6272,-7.1355 -0.7057,-6.9395 -0.588,-7.0963 -0.588,-7.1355 -0.7058,-6.9786 -0.7057,-7.1748 -0.5881,-6.9395 -1.4114,-14.1927 -0.7054,-6.9786 -0.7058,-7.0178 -0.6666,-7.1355 -0.7056,-6.9395 -0.7058,-7.1357 -0.784,-7.0178 -0.7057,-7.0571 -0.784,-7.0178 -0.8233,-7.0964 -0.7058,-7.0178 -0.784,-7.1748 -0.8233,-6.9002 -0.8233,-6.9788 -0.784,-7.2531 -0.784,-6.9002 -0.9411,-7.0963 -0.784,-6.9787 -0.8625,-7.0571 -0.8234,-7.1355 -0.9016,-6.9395 -0.7842,-7.0571 -1.8034,-14.0358 -0.9016,-7.057 -0.9017,-7.018 -0.9017,-7.057 -0.98,-6.9395 -0.9019,-7.018 -1.0193,-7.1746 -0.9016,-6.9395 -0.9803,-7.0178 -0.9016,-7.018 -1.0193,-6.9395 -0.9802,-7.0179 -1.0193,-7.0571 -0.98,-7.0178 -1.0193,-7.0572 -1.0978,-6.9395 -1.0193,-7.0178 -0.9801,-7.0178 -1.0976,-7.0572 -0.9802,-6.9003 -1.0978,-7.057 -1.137,-7.1748 -1.0585,-6.9002 -1.1369,-7.0571 -1.0976,-7.0178 -1.0978,-6.9004 -1.0977,-7.0571 -1.0978,-6.9002 -1.1761,-7.0572 -1.0978,-6.9003 -1.2153,-7.0178 -1.0977,-7.0572 -1.2153,-7.0178 -1.1761,-6.9395 -1.2155,-7.0178 -1.1761,-6.9395 -1.2153,-6.9004 -1.2152,-7.0178 -1.2938,-7.0571 -1.2154,-6.9002 -1.1762,-7.018 -1.2937,-6.9395 -1.3329,-7.0178 -1.1761,-7.018 -1.333,-6.8219 -1.2546,-7.0569 -1.2937,-7.018 -1.3329,-6.9002 -1.2938,-6.9395 -1.3721,-7.018 -1.3331,-6.9002 -1.2937,-7.0571 -1.4113,-6.9002 -1.2937,-6.9003 -1.4114,-7.0179 -1.4114,-6.9003 -1.3721,-7.0571 -1.4114,-6.9002 -1.3721,-6.9395 -1.4114,-6.9004 -1.4114,-7.0178 -1.3721,-6.9395 -1.529,-6.9003 -1.4114,-7.0178 -2.9795,-13.8006 -1.4114,-7.0179 -1.4897,-6.8219 -2.9796,-13.8005 -1.4897,-7.057 -1.5289,-6.9003 -1.6076,-6.9004 -1.5288,-6.9001 -1.5683,-6.9004 -1.4897,-6.9002 -1.6073,-6.9395 -1.5291,-6.9003 -1.5682,-6.9002 -3.2147,-13.8008 -1.5682,-6.9 -1.6074,-6.9395 -1.725,-6.9004 -1.6074,-6.9001 -1.5682,-6.9004 -1.6857,-6.9003 -1.6074,-6.9002 -1.6858,-6.7827 -1.725,-6.9002 -1.6857,-6.9003 -1.725,-6.9003 -1.6859,-6.9002 -1.725,-6.9003 -1.6857,-6.8219 -1.6858,-6.9003 -1.8035,-6.9002 -1.6857,-6.861 -1.8035,-6.8219 -1.7249,-6.9003 -2.2421,-8.6985 -87.9611,0.067 2.4287,9.1805 1.8035,6.7042 1.7641,6.9787 1.8425,6.8218 1.6859,6.8219 1.8033,6.9395 1.6859,6.9003 1.8035,6.7825 1.6857,6.9004 1.725,6.9003 1.6858,6.9394 1.725,6.7435 3.3716,13.8005 1.725,6.9003 1.6857,6.9395 1.6073,6.9002 1.6859,6.9003 3.2147,13.8006 1.6859,6.9003 1.6074,6.9002 1.5682,6.9395 1.6073,6.7827 1.6074,7.0178 1.5289,6.9003 1.6075,6.7827 1.5681,6.9002 1.4898,6.9003 1.6074,6.9395 1.5289,6.861 1.4899,7.0572 4.4692,20.7007 1.529,6.9395 1.4897,6.9395 1.4899,6.861 1.4113,7.0571 1.4898,6.9004 1.4113,6.9002 1.4899,7.0179 2.8226,13.8006 1.4114,6.9395 1.3721,7.0178 1.4114,6.9395 1.4114,7.0178 1.3721,6.9003 1.2937,6.9395 1.4114,6.9004 1.2938,7.0178 1.4112,6.9003 1.2938,6.9394 1.3331,7.018 1.2544,6.9001 1.2938,7.0572 1.3329,7.0178 1.2938,6.9004 1.2937,6.9395 1.2155,7.0178 1.2936,7.0571 1.1762,6.9004 1.333,6.9393 1.1761,7.018 1.2152,7.0571 1.2155,6.9002 1.1369,6.9004 1.2545,7.0569 1.1761,7.018 1.2154,6.9395 1.1761,7.0178 1.137,7.0572 1.1761,6.9002 1.0976,7.018 1.0978,7.0569 1.2153,7.018 1.0978,6.9395 2.1954,14.0357 0.9802,6.9395 1.1369,7.0571 1.0977,7.0179 0.9801,7.0179 1.0976,6.9395 1.0195,7.057 1.0977,6.9004 0.9801,7.0178 1.0193,7.0571 0.9802,7.0179 1.0193,7.0571 0.98,7.0572 1.0193,6.9001 0.9018,7.0572 0.98,7.0178 0.9018,7.0572 1.0193,7.018 0.9017,7.0569 0.9017,6.9004 0.9801,7.1746 0.9017,6.9003 0.9016,7.0179 0.8234,7.2139 0.8625,6.9004 0.9017,7.0178 0.7841,7.1748 0.9409,6.9787 0.784,6.9786 0.9018,7.1355 0.8232,7.0178 0.7842,6.9788 0.784,7.0962 0.8234,6.9788 0.784,7.057 0.8233,7.0572 0.6666,7.1354 0.8232,6.9395 0.7841,7.0178 0.7057,7.1357 0.7056,6.9395 0.7057,7.1355 0.7842,7.0178 0.7057,6.9786 1.4112,14.1927 0.5881,7.0963 0.7057,7.018 0.7057,7.057 0.588,7.0571 0.7057,7.0963 0.5881,6.9395 0.588,7.1355 0.6273,7.0963 0.588,7.0178 0.5882,7.0572 0.6273,7.0178 0.588,7.1356 0.5881,7.0962 0.5095,6.9788 0.5883,7.0963 0.5095,7.1355 0.5098,6.9787 0.588,7.0963 0.4705,7.0963 0.5488,7.0178 0.4705,7.0963 0.5095,7.0963 0.4706,7.0178 0.4313,7.0964 0.5095,7.0571 0.3921,7.1355 0.5096,6.9786 0.3921,7.0964 0.3921,7.1356 0.3919,7.0963 0.5098,6.9787 0.3136,7.0963 0.3921,7.1354 0.3921,7.0964 0.3919,6.9786 0.3136,7.0963 0.3921,7.0963 0.3136,7.0964 0.3921,7.0178 0.3136,7.0963 0.2744,7.0963 0.6273,14.1926 0.3137,7.0178 0.2743,7.0964 0.1961,7.0963 0.3137,7.0963 0.2744,7.0963 0.2351,7.0963 0.1962,7.0178 0.1959,7.0963 0.3136,7.0964 0.1962,7.0963 0.1559,7.0963 0.2352,7.0963 0.078,7.018 0.3921,14.1924 0.2351,14.1927 0.1961,7.0963 0.078,7.0963 0.117,7.018 0.117,7.0963 0.078,7.0963 0.117,7.0961 0.156,14.1927 0,7.0963 0.117,7.018 0,14.1926 0.078,7.0968 0,6.7676 -0.2359,6.1486 z"
       inkscape:connector-curvature="0"
       sodipodi:nodetypes="cccccccccccccccccccccccccccccccccccccccccccccccccccccccccccccccccccccccccccccccccccccccccccccccccccccccccccccccccccccccccccccccccccccccccccccccccccccccccccccccccccccccccccccccccccccccccccccccccccccccccccccccccccccccccccccccccccccccccccccccccccccccccccccccccccccccccccccccccccccccccccccccccccccccccccccccccccccccccccccccccccccccccccccccccccccccccccccccccccccccccccccccccccccccccccc" />
    <path
       id="path14069-5"
       style="fill:none;stroke:#0000ff;stroke-width:5.66929102;stroke-linecap:butt;stroke-linejoin:miter;stroke-miterlimit:2;stroke-dasharray:none;stroke-opacity:1"
       d="m 311.09459,128.50955 5.2142,4.78315 5.29252,4.78314 5.21419,4.82231 5.17504,4.78314 5.2142,4.82247 5.21419,4.78315 5.17504,4.78314 5.21404,4.82231 5.17503,4.90079 5.09656,4.78315 5.21419,4.93995 5.13588,4.90063 5.2142,4.78315 5.05739,4.90079 5.09655,4.93996 5.13572,4.86163 5.05739,4.90079 5.09655,4.97912 5.09655,4.93996 5.09672,4.86163 5.09655,4.97911 5.13572,4.93996 4.97891,4.97912 5.09671,5.01844 5.01807,5.01844 5.01823,4.86147 5.0574,5.01844 4.9789,5.09677 2.23459,2.19552 15.01537,15.016 4.90059,5.05744 4.97891,5.01845 5.01823,5.09676 4.86127,5.09677 5.01823,5.01844 14.7016,15.2903 4.90059,5.13609 5.01823,5.17526 4.78295,5.09676 4.90059,5.09677 4.90042,5.21442 4.90059,5.0576 4.78294,5.21442 4.93975,5.09676 4.74378,5.21442 4.82211,5.21441 4.90059,5.17509 4.8221,5.21442 4.82211,5.17525 4.74378,5.21442 4.8221,5.33206 4.66547,5.17526 4.86126,5.17509 5.2368,5.8427 76.38581,-0.0133 -4.78189,-5.00601 -4.6653,-5.2929 -4.70446,-5.33191 -4.70463,-5.25374 -4.8221,-5.21441 -4.70462,-5.29274 -4.78295,-5.2929 -4.6653,-5.21442 -4.78294,-5.29274 -4.86127,-5.17525 -4.70462,-5.25358 -4.78294,-5.17525 -4.74363,-5.29274 -4.97907,-5.21442 -4.78294,-5.21442 -4.74379,-5.09676 -4.86126,-5.17526 -4.90059,-5.21441 -4.78294,-5.17526 -4.90059,-5.13592 -4.90043,-5.17526 -4.78294,-5.09676 -4.90059,-5.13593 -4.93975,-5.17526 -4.90059,-5.09676 -4.86142,-5.09677 -5.01807,-5.09677 -4.86143,-5.09693 -4.90059,-5.13593 -5.01807,-4.93995 -4.90059,-5.13609 -5.01823,-5.09677 -5.01807,-4.97912 -4.86142,-5.13593 -14.97606,-14.97684 -1.05847,-0.98019 -5.09655,-5.01828 -4.97907,-5.01844 -5.01807,-4.97912 -5.05739,-5.01844 -4.97907,-5.01828 -5.09656,-4.97928 -5.01807,-4.90063 -5.09671,-5.01844 -5.13572,-4.86163 -5.09655,-4.93996 -5.05739,-4.93996 -5.13572,-4.93995 -15.28982,-14.70222 -5.2142,-4.78314 -5.09655,-4.93996 -5.2142,-4.86163 -5.05739,-4.78315 -5.25336,-4.93995 -5.21419,-4.78315 -5.17504,-4.8223 -5.17487,-4.86163 -5.17504,-4.82231 -5.2142,-4.78314 -5.25335,-4.822311 -5.17504,-4.783145 -5.29268,-4.70482 -5.2142,-4.822307 -5.29252,-4.783144 -5.17503,-4.704658 -5.29252,-4.70482 -5.33184,-4.783145 -5.2142,-4.704657 -5.25336,-4.704821 -11.22473,-10.193437 0.0175,76.373615 z"
       inkscape:connector-curvature="0"
       sodipodi:nodetypes="cccccccccccccccccccccccccccccccccccccccccccccccccccccccccccccccccccccccccccccccccccccccccccccccccccccccccccccccccccccccccccccccc" />
    <path
       id="path14067-2"
       style="fill:none;stroke:#0000ff;stroke-width:5.66929102;stroke-linecap:butt;stroke-linejoin:miter;stroke-miterlimit:2;stroke-dasharray:none;stroke-opacity:1"
       d="m 598.82187,417.13938 4.34576,4.67094 4.78294,5.29274 4.70462,5.2929 4.74379,5.29274 4.74362,5.21442 4.74378,5.2929 4.70446,5.29274 4.58698,5.41055 9.40909,10.58564 4.70446,5.33207 4.58697,5.37122 4.70447,5.29274 4.58697,5.41039 4.62614,5.41055 4.58698,5.29274 4.58682,5.37123 4.58698,5.44971 4.62614,5.37123 4.58681,5.37123 4.62614,5.44971 4.46934,5.48871 4.58698,5.37123 4.54765,5.44971 4.58698,5.48888 4.5085,5.37123 4.46933,5.52804 43.71288,-36.10881 -4.5085,-5.48887 -4.50849,-5.41039 -4.46934,-5.52804 -4.62614,-5.37122 -4.46917,-5.41056 -4.62614,-5.48871 -4.58698,-5.41055 -4.62614,-5.37123 -4.50849,-5.44955 -4.54766,-5.37123 -4.58698,-5.41055 -4.74378,-5.29274 -4.58682,-5.41055 -4.58698,-5.37122 -4.70446,-5.29274 -4.54782,-5.41039 -4.74378,-5.29291 -4.58682,-5.33206 -4.74378,-5.37123 -4.68785,-5.58521 z"
       inkscape:connector-curvature="0"
       sodipodi:nodetypes="ccccccccccccccccccccccccccccccccccccccccccccccccc" />
    <path
       id="path4477-03-8"
       style="fill:none;stroke:#0000ff;stroke-width:5.66929102;stroke-linecap:butt;stroke-linejoin:miter;stroke-miterlimit:2;stroke-dasharray:none;stroke-opacity:1"
       d="m -487.30855,1207.6566 6.46339,6.4487 5.0182,4.9793 4.9789,5.136 4.9791,4.9792 4.9006,5.136 4.9789,5.0576 4.9006,5.136 4.9006,5.0966 4.9397,5.1362 4.9004,5.0576 4.8615,5.175 4.82207,5.097 4.90064,5.2536 4.82208,5.1752 4.82208,5.2144 4.86145,5.1751 4.78296,5.1752 4.70448,5.2536 4.82224,5.1753 4.78296,5.2927 4.7436,5.1754 4.74376,5.2928 9.40912,10.664 4.66528,5.2536 4.74376,5.2928 4.58704,5.4104 4.7044,5.3321 4.58704,5.3712 4.7044,5.2927 4.62616,5.4106 4.54768,5.4104 4.62616,5.3712 4.54776,5.4498 4.5868,5.4104 4.54784,5.4496 4.50848,5.4104 4.50856,5.4889 4.46929,5.4495 4.50848,5.4497 4.50856,5.5281 4.50848,5.4888 4.43016,5.489 4.4692,5.528 4.39096,5.5672 4.39088,5.4888 4.43016,5.6066 4.39088,5.5672 4.3908,5.528 4.31256,5.6066 4.39088,5.6064 4.31248,5.6064 4.2732,5.685 4.31256,5.5282 4.31256,5.6848 4.31248,5.5672 4.19488,5.7241 4.2732,5.6848 4.23408,5.7635 4.15576,5.5672 4.35168,5.8025 4.0772,5.724 4.19489,5.6845 4.23408,5.6851 4.03808,5.8029 4.23408,5.724 4.11656,5.7631 4.11638,5.842 4.0381,5.7629 4.1164,5.6851 3.9989,5.92 4.0773,5.8029 4.038,5.8411 3.9988,5.724 3.9989,5.8809 3.9989,5.842 3.9988,5.9591 3.9989,5.842 3.8811,5.92 3.999,5.764 3.8812,6.0369 3.9596,5.8811 3.8814,5.8809 3.7636,5.92 3.9204,6.038 3.9205,5.92 3.8028,5.9591 3.802706,5.9989 3.803,5.92 7.6056,11.9191 3.6459,6.116 3.8028,5.9589 3.7245,6.0771 3.6853,5.9989 3.7243,6.0771 3.6853,6.0769 3.7243,6.0771 3.5677,5.998 3.6068,6.0769 3.6851,6.0771 3.6069,6.116 3.6068,6.0769 3.4892,6.116 3.6068,6.195 3.6069,6.116 3.48909,6.077 3.4892,6.234 3.52841,6.233 6.97839,12.2331 3.4109004,6.194 3.5283002,6.234 3.37181,6.234 3.4106,6.194 3.4109001,6.116 3.3715,6.234 3.2932993,6.352 3.4107,6.1549 3.2932,6.3121 3.2932,6.195 3.4498,6.273 3.1756,6.351 3.3324,6.352 3.254,6.233 3.2148,6.273 3.2147,6.312 3.1756,6.273 3.1755,6.313 3.2148,6.39 3.2148,6.352 3.0972,6.351 3.2147,6.391 3.0971,6.351 3.0971,6.273 3.0972,6.469 2.9795,6.351 3.13639,6.391 2.9796,6.391 2.9795,6.468 3.0188,6.352 3.0187,6.508 2.9795,6.351 3.0188,6.391 2.901105,6.508 2.862,6.469 5.802299,13.017 2.9011,6.351 2.9011,6.508 2.8227,6.469 2.9011,6.508 2.7837,6.509 2.8226,6.508 2.7051,6.508 2.7443,6.626 2.8227,6.508 2.7052,6.508 2.7049,6.587 5.4104,13.016 2.7049,6.626 2.5483,6.508 2.7052,6.665 2.6267,6.587 2.6267,6.548 2.5482,6.625 2.5092,6.626 2.5875,6.508 2.5482,6.665 2.5875,6.587 2.4699,6.783 2.509,6.508 2.4307,6.626 2.5091,6.743 2.3915,6.508 2.4699,6.783 2.4307,6.626 2.3914,6.665 2.313,6.626 2.3523,6.782 2.3131,6.626 2.3915,6.7829 2.3131,6.626 2.3132,6.7821 2.1954,6.626 2.2739,6.744 2.2346,6.665 2.2739,6.743 2.2346,6.783 2.1562,6.626 2.1171,6.9 2.1955,6.665 2.0777,6.743 2.2347,6.783 2.0779,6.783 2.117,6.782 1.9994,6.744 2.1171,6.782 2.0778,6.783 1.9994,6.861 1.9995,6.665 1.9993,6.9 1.9995,6.783 1.9211,6.744 1.9993,6.821 1.8818,6.901 1.9211,6.861 3.7637,13.565 1.8033,6.9 1.921,6.783 1.8035,6.9 1.8033,6.783 3.6068,13.801 1.6859,6.743 1.7248,7.018 1.7643,6.822 1.725,6.9 1.6466,6.783 1.6465,7.017 1.6858,6.901 1.6074,6.9 1.5682,6.9 1.725,6.901 1.4897,6.9 1.6074,6.9 1.6465,6.9 1.4506,6.901 1.529,6.939 1.4898,6.94 1.4898,6.9 1.4898,7.018 1.4114,6.782 1.4112,6.901 1.4899,7.096 1.3721,6.9 1.3329,7.018 1.4114,6.9 1.3721,7.018 1.2938,6.861 0.0587,0.9545 0.0616,-349.9715 -0.9044,-2.583 -2.2347,-6.782 -2.0386,-6.783 -2.2346,-6.626 -2.1954,-6.9 -2.0778,-6.626 -2.3131,-6.783 -2.1956,-6.782 -2.2346,-6.5871 -2.2739,-6.7829 -2.313,-6.626 -2.3132,-6.821 -2.2736,-6.587 -2.3132,-6.822 -2.3915,-6.586 -2.3131,-6.783 -2.3522,-6.626 -2.4306,-6.665 -2.3914,-6.626 -2.3916,-6.783 -2.509,-6.508 -2.4307,-6.743 -2.4699,-6.626 -2.509,-6.626 -2.509,-6.665 -2.5092,-6.508 -2.5091,-6.743 -2.5484,-6.509 -2.5089,-6.625 -2.6268,-6.665 -2.5875,-6.47 -2.5875,-6.665 -5.3317,-13.251 -2.7051,-6.508 -2.6659,-6.509 -2.5875,-6.626 -2.8228,-6.508 -2.705,-6.508 -2.666,-6.626 -2.8227,-6.469 -2.7052,-6.508 -2.8226,-6.508 -2.7837,-6.626 -2.9011,-6.469 -2.7835,-6.508 -2.8227,-6.391 -2.8619,-6.508 -2.9403,-6.508 -2.862,-6.469 -2.9402,-6.391 -2.862,-6.508 -3.0188,-6.351 -2.9012,-6.509 -3.0187,-6.508 -2.9794,-6.351 -2.9796,-6.391 -3.0188,-6.508 -2.9795,-6.351 -3.1364,-6.469 -3.0188,-6.273 -3.0579,-6.43 -3.097,-6.391 -3.0971,-6.351 -3.2149,-6.273 -3.0971,-6.469 -3.1756,-6.273 -3.0971,-6.43 -3.2147,-6.273 -3.1756,-6.351 -3.2149,-6.234 -3.293,-6.3511 -3.2147,-6.234 -3.2932,-6.3909 -3.3324,-6.194 -3.175599,-6.352 -3.4109,-6.2731 -3.293105,-6.234 -3.2932,-6.312 -3.45,-6.116 -3.2933,-6.234 -3.3715,-6.351 -3.3716,-6.116 -3.44999,-6.312 -3.4892,-6.156 -3.3716,-6.194 -3.5283,-6.234 -3.4109,-6.116 -3.45,-6.1949 -3.5283,-6.1551 -3.4892,-6.0769 -3.6068,-6.1951 -3.4892,-6.116 -3.6069,-6.2329 -3.5283,-6.0771 -3.5677,-6.1169 -3.6068,-6.076 -3.7244,-6.1171 -3.5676,-6.0769 -3.6067,-6.076 -3.6852,-5.96 -3.7244993,-6.234 -3.6853,-5.9591 -3.68510017,-6.0769 -3.72449993,-5.998 -3.68521,-6.038 -3.8028006,-5.9991 -3.6852,-5.9589 -3.842,-6.038 -3.80279,-5.998 -3.80301,-5.96 -3.80279,-6.0371 -3.8813,-5.9209 -3.8028,-5.92 -3.8813,-5.9591 -3.9204,-5.92 -3.8812,-5.9989 -3.8812,-5.8811 -3.9204,-5.88 -3.8813,-5.96 -4.0381,-5.802 -3.8813,-5.8809 -3.9987,-5.8811 -3.999,-5.7629 -3.9987,-5.96 -3.9989,-5.7631 -4.0772,-5.92 -4.0381,-5.7629 -4.1164,-5.803 -3.959706,-5.8418 -4.1164,-5.8024 -4.0773,-5.6849 -4.1165,-5.8026 -4.195,-5.7633 -4.0773,-5.7632 -4.1949,-5.8025 -4.234,-5.685 -4.1164,-5.6848 -4.1948,-5.6849 -4.1949,-5.7241 -4.2735,-5.724 -4.234,-5.6848 -4.2732,-5.5675 -4.1948,-5.724 -4.3126,-5.6848 -4.2732,-5.5673 -4.3517,-5.6064 -4.27334,-5.6456 -4.39088,-5.6067 -4.31256,-5.5672 -4.3908,-5.6065 -4.43016,-5.6064 -4.27321,-5.5672 -4.43024,-5.5282 -4.46928,-5.5673 -4.39088,-5.5672 -4.39088,-5.4497 -4.50848,-5.4888 -4.50848,-5.5282 -4.39104,-5.4494 -4.46912,-5.528 -4.50872,-5.4499 -4.66528,-5.4888 -4.46936,-5.4889 -4.50848,-5.4104 -4.5868,-5.4104 -4.62616,-5.3712 -4.46928,-5.332 -4.62616,-5.4888 -4.70448,-5.3714 -4.58696,-5.3712 -4.58696,-5.4497 -4.70448,-5.2536 -4.58696,-5.2927 -4.70448,-5.4497 -4.70465,-5.2536 -4.7044,-5.2929 -4.70464,-5.3713 -4.70448,-5.2535 -4.78296,-5.2144 -4.70448,-5.2928 -4.78288,-5.2144 -4.82232,-5.2929 -4.78296,-5.1752 -4.82208,-5.2144 -4.78296,-5.2144 -4.82208,-5.2144 -4.74376,-5.2144 -4.93976,-5.0576 -4.90056,-5.2144 -4.78296,-5.0969 -4.86128,-5.1751 -4.93976,-5.1361 -4.93976,-5.0968 -4.97904,-5.0967 -4.90056,-5.0968 -4.90048,-5.0184 -4.97905,-5.0576 -5.01808,-4.9792 -12.89213,-13.0891 z"
       inkscape:connector-curvature="0"
       sodipodi:nodetypes="cccccccccccccccccccccccccccccccccccccccccccccccccccccccccccccccccccccccccccccccccccccccccccccccccccccccccccccccccccccccccccccccccccccccccccccccccccccccccccccccccccccccccccccccccccccccccccccccccccccccccccccccccccccccccccccccccccccccccccccccccccccccccccccccccccccccccccccccccccccccccccccccccccccccccccccccccccccccccccccccccccccccccccccccccccccccccccccccccccccccccccccccccccccccccccccccccccccccccccccccccccccccccccccccccccccccccccccccccccccc" />
  </g>
</svg>
