<?xml version="1.0" encoding="UTF-8" standalone="no"?>
<svg
   xmlns:dc="http://purl.org/dc/elements/1.1/"
   xmlns:cc="http://creativecommons.org/ns#"
   xmlns:rdf="http://www.w3.org/1999/02/22-rdf-syntax-ns#"
   xmlns:svg="http://www.w3.org/2000/svg"
   xmlns="http://www.w3.org/2000/svg"
   xmlns:sodipodi="http://sodipodi.sourceforge.net/DTD/sodipodi-0.dtd"
   xmlns:inkscape="http://www.inkscape.org/namespaces/inkscape"
   width="1000mm"
   height="1000mm"
   viewBox="0 0 2834.6457 2834.6456"
   version="1.1"
   id="svg3355"
   inkscape:version="0.91 r13725"
   sodipodi:docname="Getrennt_Norm_Bearb_T-Kreuzung.svg">
  <metadata
     id="metadata3703">
    <rdf:RDF>
      <cc:Work
         rdf:about="">
        <dc:format>image/svg+xml</dc:format>
        <dc:type
           rdf:resource="http://purl.org/dc/dcmitype/StillImage" />
        <dc:title />
      </cc:Work>
    </rdf:RDF>
  </metadata>
  <sodipodi:namedview
     pagecolor="#ffffff"
     bordercolor="#666666"
     borderopacity="1"
     objecttolerance="10"
     gridtolerance="10"
     guidetolerance="10"
     inkscape:pageopacity="0"
     inkscape:pageshadow="2"
     inkscape:window-width="1280"
     inkscape:window-height="695"
     id="namedview3701"
     showgrid="false"
     inkscape:document-units="mm"
     units="mm"
     fit-margin-top="0"
     fit-margin-left="0"
     fit-margin-right="0"
     fit-margin-bottom="0"
     inkscape:zoom="0.16403361"
     inkscape:cx="1518.4547"
     inkscape:cy="2409.2514"
     inkscape:window-x="0"
     inkscape:window-y="0"
     inkscape:window-maximized="1"
     inkscape:current-layer="surface4462" />
  <defs
     id="defs3357">
    <clipPath
       id="clip1">
      <path
         d="m 715,578 17,0 0,2 -17,0 z m 0,0"
         id="path3360"
         inkscape:connector-curvature="0" />
    </clipPath>
    <clipPath
       id="clip2">
      <path
         d="m 720,550 12,0 0,2 -12,0 z m 0,0"
         id="path3363"
         inkscape:connector-curvature="0" />
    </clipPath>
    <clipPath
       id="clip3">
      <path
         d="m 720,583 12,0 0,2 -12,0 z m 0,0"
         id="path3366"
         inkscape:connector-curvature="0" />
    </clipPath>
    <clipPath
       id="clip4">
      <path
         d="m 720,10 12,0 0,2 -12,0 z m 0,0"
         id="path3369"
         inkscape:connector-curvature="0" />
    </clipPath>
    <clipPath
       id="clip5">
      <path
         d="m 724,559 8,0 0,12 -8,0 z m 0,0"
         id="path3372"
         inkscape:connector-curvature="0" />
    </clipPath>
  </defs>
  <g
     id="surface4462"
     transform="translate(984.56739,1093.2345)">
    <path
       style="fill:none;stroke:#000000;stroke-width:2.83464575;stroke-linecap:butt;stroke-linejoin:miter;stroke-miterlimit:2;stroke-dasharray:none;stroke-opacity:1"
       d="m 1842.9917,-1093.2355 0,2834.6466"
       id="path3539"
       inkscape:connector-curvature="0" />
    <path
       style="fill:none;stroke:#000000;stroke-width:2.83464575;stroke-linecap:butt;stroke-linejoin:miter;stroke-miterlimit:2;stroke-dasharray:none;stroke-opacity:1"
       d="m 1850.0792,1734.3245 -2834.64659,0"
       id="path3541"
       inkscape:connector-curvature="0" />
    <path
       style="fill:none;stroke:#000000;stroke-width:2.83464575;stroke-linecap:butt;stroke-linejoin:miter;stroke-miterlimit:2;stroke-dasharray:none;stroke-opacity:1"
       d="m -977.48078,1741.411 0,-2834.6466"
       id="path3543"
       inkscape:connector-curvature="0" />
    <path
       style="fill:none;stroke:#000000;stroke-width:2.83464575;stroke-linecap:butt;stroke-linejoin:miter;stroke-miterlimit:2;stroke-dasharray:none;stroke-opacity:1"
       d="m -984.56739,-1086.148 2834.64659,0"
       id="path3545"
       inkscape:connector-curvature="0" />
    <path
       id="path4662"
       style="fill:none;stroke:#0000ff;stroke-width:5.6692915;stroke-linecap:butt;stroke-linejoin:miter;stroke-miterlimit:2;stroke-dasharray:none;stroke-opacity:1"
       d="m 461.1019,607.5528 -56.69291,0 0,844.0158 56.69291,0 z"
       inkscape:connector-curvature="0"
       sodipodi:nodetypes="ccccc" />
    <path
       id="path4670"
       style="fill:none;stroke:#0000ff;stroke-width:5.66929102;stroke-linecap:butt;stroke-linejoin:miter;stroke-miterlimit:2;stroke-dasharray:none;stroke-opacity:1"
       d="m 461.1019,40.62367 0,-844.01572 -56.69291,0 0,844.01572 z"
       inkscape:connector-curvature="0"
       sodipodi:nodetypes="ccccc" />
    <path
       inkscape:connector-curvature="0"
       id="path4716-3-7"
       style="fill:none;stroke:#0000ff;stroke-width:5.6692915;stroke-linecap:butt;stroke-linejoin:miter;stroke-miterlimit:2;stroke-dasharray:none;stroke-opacity:1"
       d="m -814.48865,1734.3101 0,-1410.22104 -85.03937,0.0242 0,1410.21074 z"
       sodipodi:nodetypes="ccccc" />
    <path
       inkscape:connector-curvature="0"
       id="path4716-3-6"
       style="fill:none;stroke:#0000ff;stroke-width:5.6692915;stroke-linecap:butt;stroke-linejoin:miter;stroke-miterlimit:2;stroke-dasharray:none;stroke-opacity:1"
       d="m -814.48865,324.16486 0,-1410.22136 -85.03937,0.024 0,1410.21109 z"
       sodipodi:nodetypes="ccccc" />
    <path
       id="path3521-4"
       style="fill:none;stroke:#0000ff;stroke-width:5.6692915;stroke-linecap:butt;stroke-linejoin:miter;stroke-miterlimit:2;stroke-dasharray:none;stroke-opacity:1"
       d="m 1793.1438,-1086.1317 4e-4,30.092 0.294,3.4869 0.9604,3.3886 1.4898,3.1926 2.0974,2.8402 2.4894,2.4484 2.9404,1.9784 3.2343,1.4102 3.3911,0.8423 2.901,0.1959 30.0443,0 -0.1609,84.75389 -49.6813,0 -2.4896,-0.059 -3.5479,-0.1957 -3.4892,-0.2939 -3.4891,-0.5092 -3.4891,-0.5877 -3.4304,-0.7638 -3.4499,-0.8814 -3.3322,-1.0578 -3.3519,-1.1949 -3.2931,-1.2927 -3.1755,-1.4886 -3.1952,-1.6061 -3.097,-1.6845 -2.9796,-1.8412 -2.9598,-1.9979 -2.8422,-2.0959 -2.7247,-2.1937 -2.705,-2.2917 -2.5286,-2.4288 -2.4502,-2.5464 -2.3915,-2.6443 -2.2542,-2.7421 -2.0778,-2.7815 -1.9993,-2.8989 -1.9013,-2.9772 -1.7838,-3.0948 -1.6075,-3.1339 -1.4897,-3.19289 -1.3525,-3.2318 -1.2348,-3.3494 -1.0978,-3.3298 -0.9605,-3.3886 -0.7841,-3.4474 -0.6469,-3.4865 -0.5095,-3.4865 -0.392,-3.5257 -0.1962,-3.4866 -0.098,-3.5455 -5e-4,-49.3924 z"
       inkscape:connector-curvature="0"
       sodipodi:nodetypes="cccccccccccccccccccccccccccccccccccccccccccccccccccccc" />
    <path
       id="path3521-4-3"
       style="fill:none;stroke:#0000ff;stroke-width:5.6692915;stroke-linecap:butt;stroke-linejoin:miter;stroke-miterlimit:2;stroke-dasharray:none;stroke-opacity:1"
       d="m 1842.9755,1684.4766 -30.092,4e-4 -3.4869,0.294 -3.3886,0.9604 -3.1926,1.4898 -2.8402,2.0974 -2.4484,2.4894 -1.9784,2.9404 -1.4102,3.2343 -0.8423,3.3911 -0.1959,2.901 0,30.0443 -84.754,-0.1609 0,-49.6813 0.059,-2.4896 0.1957,-3.5479 0.2939,-3.4892 0.5092,-3.4891 0.5877,-3.4891 0.7638,-3.4304 0.8814,-3.4499 1.0578,-3.3322 1.1949,-3.3519 1.2927,-3.2931 1.4886,-3.1755 1.6061,-3.1952 1.6845,-3.097 1.8412,-2.9796 1.9979,-2.9598 2.0959,-2.8422 2.1937,-2.7247 2.2917,-2.705 2.4288,-2.5286 2.5464,-2.4502 2.6443,-2.3915 2.7421,-2.2542 2.7815,-2.0778 2.8989,-1.9993 2.9772,-1.9013 3.0948,-1.7838 3.1339,-1.6075 3.1929,-1.4897 3.2318,-1.3525 3.3494,-1.2348 3.3298,-1.0978 3.3886,-0.9605 3.4474,-0.7841 3.4865,-0.6469 3.4865,-0.5095 3.5257,-0.392 3.4866,-0.1962 3.5455,-0.098 49.3924,-5e-4 z"
       inkscape:connector-curvature="0"
       sodipodi:nodetypes="cccccccccccccccccccccccccccccccccccccccccccccccccccccc" />
  </g>
</svg>
